<svg width="94" height="29" viewBox="0 0 94 29" fill="none" xmlns="http://www.w3.org/2000/svg">
<mask id="path-1-outside-1_5_3" maskUnits="userSpaceOnUse" x="0" y="0" width="94" height="29" fill="black">
<rect fill="white" width="94" height="29"/>
<path d="M15.856 6.48C16.1547 7.07733 16.3787 7.67467 16.528 8.272C16.592 8.57067 16.6453 8.89067 16.688 9.232C16.7307 9.552 16.752 9.89333 16.752 10.256V16.976V23.664C16.752 24.3253 16.528 24.88 16.08 25.328C15.5893 25.776 15.0347 26 14.416 26C13.776 26 13.232 25.776 12.784 25.328C12.336 24.88 12.112 24.3253 12.112 23.664V21.392V19.12C12.112 19.0347 12.08 18.96 12.016 18.896C11.952 18.832 11.8773 18.8 11.792 18.8H9.36H6.96C6.87467 18.8 6.8 18.832 6.736 18.896C6.672 18.9387 6.64 19.0133 6.64 19.12V21.392V23.664C6.64 24.3253 6.416 24.88 5.968 25.328C5.52 25.776 4.976 26 4.336 26C3.67467 26 3.12 25.776 2.672 25.328C2.224 24.88 2 24.3253 2 23.664V16.976V10.256C2 9.50933 2.07467 8.848 2.224 8.272C2.30933 7.952 2.39467 7.65333 2.48 7.376C2.58667 7.07733 2.72533 6.77867 2.896 6.48C3.17333 5.968 3.52533 5.47733 3.952 5.008C4.18667 4.79467 4.42133 4.60267 4.656 4.432C4.89067 4.24 5.14667 4.06933 5.424 3.92C5.95733 3.62133 6.56533 3.38667 7.248 3.216C7.97333 3.04533 8.67733 2.96 9.36 2.96C9.744 2.96 10.1067 2.98133 10.448 3.024C10.8107 3.06667 11.1627 3.13067 11.504 3.216C12.1867 3.38667 12.784 3.62133 13.296 3.92C13.5947 4.06933 13.8613 4.24 14.096 4.432C14.3307 4.60267 14.5547 4.79467 14.768 5.008C15.1947 5.456 15.5573 5.94667 15.856 6.48ZM6.96 14.704H9.36H11.792C11.8773 14.704 11.952 14.672 12.016 14.608C12.0373 14.5653 12.0587 14.5333 12.08 14.512C12.1013 14.4693 12.112 14.4267 12.112 14.384V12.4V10.448C12.112 9.97867 12.048 9.53067 11.92 9.104C11.8347 8.76267 11.664 8.41067 11.408 8.048C11.1733 7.74933 10.896 7.536 10.576 7.408C10.256 7.25867 9.85067 7.184 9.36 7.184C8.89067 7.184 8.496 7.25867 8.176 7.408C7.856 7.536 7.57867 7.74933 7.344 8.048C7.088 8.41067 6.91733 8.76267 6.832 9.104C6.704 9.53067 6.64 9.97867 6.64 10.448V12.4V14.384C6.64 14.4693 6.672 14.544 6.736 14.608C6.8 14.672 6.87467 14.704 6.96 14.704ZM30.1248 16.432L31.6928 19.536L33.2608 22.64C33.4101 22.9387 33.4848 23.2373 33.4848 23.536C33.5061 23.8347 33.4741 24.1227 33.3888 24.4C33.1968 24.9973 32.8021 25.4453 32.2048 25.744C31.6288 26.0427 31.0421 26.0853 30.4448 25.872C29.8261 25.6587 29.3781 25.2747 29.1008 24.72L27.2128 20.976L25.3568 17.264C25.2928 17.1573 25.2181 17.072 25.1328 17.008C25.0261 16.944 24.9088 16.912 24.7808 16.912H24.6208H24.4288C24.3434 16.912 24.2688 16.944 24.2048 17.008C24.1408 17.072 24.1088 17.1467 24.1088 17.232V20.464V23.664C24.1088 24.3253 23.8848 24.88 23.4368 25.328C22.9888 25.776 22.4448 26 21.8048 26C21.1434 26 20.5888 25.776 20.1408 25.328C19.6928 24.88 19.4688 24.3253 19.4688 23.664V14.576V5.488C19.4688 4.912 19.6714 4.42133 20.0768 4.016C20.4821 3.61067 20.9728 3.408 21.5488 3.408H24.0448H26.5088C27.2128 3.408 27.8528 3.48267 28.4288 3.632C28.7274 3.696 29.0154 3.78133 29.2928 3.888C29.5914 3.99467 29.8794 4.112 30.1568 4.24C30.4341 4.38933 30.6901 4.54933 30.9248 4.72C31.1594 4.86933 31.3834 5.05067 31.5968 5.264C32.0661 5.66933 32.4394 6.11733 32.7168 6.608C33.0581 7.16267 33.3034 7.71733 33.4528 8.272C33.6021 8.80533 33.6768 9.43467 33.6768 10.16C33.6768 10.8853 33.6021 11.5147 33.4528 12.048C33.3034 12.6027 33.0581 13.1573 32.7168 13.712C32.5674 13.9467 32.4074 14.1707 32.2368 14.384C32.0661 14.5973 31.8848 14.8 31.6928 14.992C31.3088 15.3547 30.8608 15.6853 30.3488 15.984H30.3168L30.2848 16.016C30.2208 16.0373 30.1674 16.0907 30.1248 16.176C30.1034 16.2613 30.1034 16.3467 30.1248 16.432ZM24.1088 7.888V10.16V12.432C24.1088 12.56 24.1408 12.6347 24.2048 12.656C24.2688 12.72 24.3434 12.752 24.4288 12.752H25.3568H26.2848C26.6474 12.752 27.0101 12.6987 27.3728 12.592C27.6714 12.5067 27.9701 12.336 28.2688 12.08C28.5034 11.888 28.6954 11.6213 28.8448 11.28C28.9728 10.96 29.0368 10.5867 29.0368 10.16C29.0368 9.73333 28.9728 9.36 28.8448 9.04C28.6954 8.69867 28.5034 8.432 28.2688 8.24C27.9701 7.984 27.6714 7.81333 27.3728 7.728C27.0101 7.62133 26.6474 7.568 26.2848 7.568H25.3568H24.4288C24.3434 7.568 24.2688 7.6 24.2048 7.664C24.1408 7.70667 24.1088 7.78133 24.1088 7.888ZM40.7063 21.584C40.9409 21.8187 41.1329 22.1173 41.2823 22.48C41.4316 22.7787 41.5063 23.1307 41.5063 23.536C41.5063 23.9627 41.4316 24.3253 41.2823 24.624C41.1329 24.9867 40.9409 25.2853 40.7063 25.52C40.4289 25.7547 40.1303 25.9573 39.8103 26.128C39.4476 26.256 39.0743 26.32 38.6903 26.32C38.2849 26.32 37.9223 26.256 37.6023 26.128C37.4316 26.0427 37.2716 25.9573 37.1223 25.872C36.9729 25.7653 36.8343 25.648 36.7063 25.52C36.4289 25.2427 36.2263 24.944 36.0983 24.624C35.9703 24.304 35.9062 23.9413 35.9062 23.536C35.9062 23.152 35.9703 22.8 36.0983 22.48C36.2263 22.16 36.4289 21.8613 36.7063 21.584C36.8343 21.456 36.9729 21.3493 37.1223 21.264C37.2716 21.1573 37.4316 21.0613 37.6023 20.976C37.9223 20.848 38.2849 20.784 38.6903 20.784C39.0743 20.784 39.4476 20.848 39.8103 20.976C40.1303 21.1467 40.4289 21.3493 40.7063 21.584ZM57.03 7.024C57.1793 7.32266 57.3073 7.62133 57.414 7.92C57.5207 8.19733 57.606 8.496 57.67 8.816C57.8193 9.41333 57.894 10.0853 57.894 10.832V14.704V18.608C57.894 19.3333 57.8193 19.9947 57.67 20.592C57.542 21.2107 57.3287 21.808 57.03 22.384C56.774 22.9173 56.422 23.4187 55.974 23.888C55.5473 24.336 55.0673 24.72 54.534 25.04C54.022 25.3387 53.4247 25.5733 52.742 25.744C52.0593 25.9147 51.366 26 50.662 26H48.262H45.83C45.254 26 44.7633 25.7973 44.358 25.392C43.9527 24.9867 43.75 24.496 43.75 23.92V14.704V5.488C43.75 4.912 43.9527 4.42133 44.358 4.016C44.7633 3.61067 45.254 3.408 45.83 3.408H48.262H50.662C51.366 3.408 52.0593 3.49333 52.742 3.664C53.4247 3.83467 54.022 4.06933 54.534 4.368C55.0673 4.688 55.5473 5.072 55.974 5.52C56.3793 5.94667 56.7313 6.448 57.03 7.024ZM48.39 7.952V14.704V21.456C48.39 21.5627 48.422 21.648 48.486 21.712C48.5713 21.7547 48.646 21.776 48.71 21.776H49.574H50.438C50.9287 21.776 51.334 21.7013 51.654 21.552C51.9953 21.424 52.2833 21.2 52.518 20.88C52.7527 20.6027 52.934 20.24 53.062 19.792C53.19 19.3867 53.254 18.928 53.254 18.416V14.704V10.992C53.254 10.5013 53.19 10.0427 53.062 9.616C52.934 9.168 52.7527 8.80533 52.518 8.528C52.4113 8.37867 52.2833 8.25067 52.134 8.144C51.9847 8.016 51.8247 7.92 51.654 7.856C51.334 7.70667 50.9287 7.632 50.438 7.632H49.574H48.71C48.6247 7.632 48.55 7.664 48.486 7.728C48.422 7.77067 48.39 7.84533 48.39 7.952ZM73.981 6.48C74.2797 7.07733 74.5037 7.67467 74.653 8.272C74.717 8.57067 74.7703 8.89067 74.813 9.232C74.8557 9.552 74.877 9.89333 74.877 10.256V14.704V19.152C74.877 19.5147 74.8557 19.8667 74.813 20.208C74.7703 20.528 74.717 20.848 74.653 21.168C74.4823 21.808 74.2583 22.3947 73.981 22.928C73.6823 23.4827 73.3197 23.9733 72.893 24.4C72.445 24.848 71.9543 25.2213 71.421 25.52C71.1437 25.6693 70.8557 25.808 70.557 25.936C70.2583 26.0427 69.949 26.128 69.629 26.192C69.2877 26.2773 68.9357 26.3413 68.573 26.384C68.2317 26.4267 67.869 26.448 67.485 26.448C66.8023 26.448 66.0983 26.3627 65.373 26.192C65.053 26.128 64.7437 26.0427 64.445 25.936C64.1463 25.808 63.8477 25.6693 63.549 25.52C63.2717 25.3493 63.0157 25.1787 62.781 25.008C62.5463 24.816 62.3117 24.6133 62.077 24.4C61.6503 23.9307 61.2983 23.44 61.021 22.928C60.8503 22.6507 60.7117 22.3627 60.605 22.064C60.5197 21.7653 60.4343 21.4667 60.349 21.168C60.1997 20.5707 60.125 19.8987 60.125 19.152V14.704V10.256C60.125 9.50933 60.1997 8.848 60.349 8.272C60.4343 7.952 60.5197 7.65333 60.605 7.376C60.7117 7.07733 60.8503 6.77867 61.021 6.48C61.2983 5.968 61.6503 5.47733 62.077 5.008C62.3117 4.79467 62.5463 4.60267 62.781 4.432C63.0157 4.24 63.2717 4.06933 63.549 3.92C64.0823 3.62133 64.6903 3.38667 65.373 3.216C66.0983 3.04533 66.8023 2.96 67.485 2.96C67.869 2.96 68.2317 2.98133 68.573 3.024C68.9357 3.06667 69.2877 3.13067 69.629 3.216C70.3117 3.38667 70.909 3.62133 71.421 3.92C71.7197 4.06933 71.9863 4.24 72.221 4.432C72.4557 4.60267 72.6797 4.79467 72.893 5.008C73.3197 5.456 73.6823 5.94667 73.981 6.48ZM64.765 10.448V14.704V18.96C64.765 19.472 64.829 19.92 64.957 20.304C64.9997 20.5173 65.0637 20.7093 65.149 20.88C65.2557 21.0293 65.3623 21.1893 65.469 21.36C65.7037 21.6587 65.981 21.872 66.301 22C66.621 22.1493 67.0157 22.224 67.485 22.224C67.9757 22.224 68.381 22.1493 68.701 22C69.021 21.872 69.2983 21.6587 69.533 21.36C69.6397 21.1893 69.7357 21.0293 69.821 20.88C69.9277 20.7093 70.0023 20.5173 70.045 20.304C70.173 19.92 70.237 19.472 70.237 18.96V14.704V10.448C70.237 9.97867 70.173 9.53067 70.045 9.104C69.9597 8.76267 69.789 8.41067 69.533 8.048C69.2983 7.74933 69.021 7.536 68.701 7.408C68.381 7.25867 67.9757 7.184 67.485 7.184C67.0157 7.184 66.621 7.25867 66.301 7.408C65.981 7.536 65.7037 7.74933 65.469 8.048C65.213 8.41067 65.0423 8.76267 64.957 9.104C64.829 9.53067 64.765 9.97867 64.765 10.448ZM89.797 12.624C90.373 12.624 90.8637 12.8267 91.269 13.232C91.6743 13.6373 91.877 14.128 91.877 14.704V16.944V19.152C91.877 19.5147 91.8557 19.8667 91.813 20.208C91.7703 20.528 91.717 20.848 91.653 21.168C91.4823 21.808 91.2583 22.3947 90.981 22.928C90.6823 23.4827 90.3197 23.9733 89.893 24.4C89.445 24.848 88.9543 25.2213 88.421 25.52C88.1437 25.6693 87.8557 25.808 87.557 25.936C87.2583 26.0427 86.949 26.128 86.629 26.192C86.2877 26.2773 85.9357 26.3413 85.573 26.384C85.2317 26.4267 84.869 26.448 84.485 26.448C83.8023 26.448 83.0983 26.3627 82.373 26.192C82.053 26.128 81.7437 26.0427 81.445 25.936C81.1463 25.808 80.8477 25.6693 80.549 25.52C80.2717 25.3493 80.0157 25.1787 79.781 25.008C79.5463 24.816 79.3117 24.6133 79.077 24.4C78.6503 23.9307 78.2983 23.44 78.021 22.928C77.8503 22.6507 77.7117 22.3627 77.605 22.064C77.5197 21.7653 77.4343 21.4667 77.349 21.168C77.1997 20.5707 77.125 19.8987 77.125 19.152V14.704V10.256C77.125 9.50933 77.1997 8.848 77.349 8.272C77.4343 7.952 77.5197 7.65333 77.605 7.376C77.7117 7.07733 77.8503 6.77867 78.021 6.48C78.2983 5.968 78.6503 5.47733 79.077 5.008C79.3117 4.79467 79.5463 4.60267 79.781 4.432C80.0157 4.24 80.2717 4.06933 80.549 3.92C81.0823 3.62133 81.6903 3.38667 82.373 3.216C83.0983 3.04533 83.8023 2.96 84.485 2.96C84.869 2.96 85.2317 2.98133 85.573 3.024C85.9357 3.06667 86.2877 3.13067 86.629 3.216C87.3117 3.38667 87.909 3.62133 88.421 3.92C88.869 4.15467 89.253 4.42133 89.573 4.72C89.7437 4.86933 89.9037 5.02933 90.053 5.2C90.2023 5.37067 90.3517 5.54133 90.501 5.712C90.9063 6.24533 91.0877 6.81067 91.045 7.408C91.0023 8.00533 90.7357 8.496 90.245 8.88C89.7757 9.24267 89.1997 9.392 88.517 9.328C88.197 9.28533 87.8877 9.2 87.589 9.072C87.2903 8.92267 87.0343 8.70933 86.821 8.432C86.501 8.048 86.1703 7.73867 85.829 7.504C85.4023 7.26933 84.9543 7.152 84.485 7.152C83.7597 7.152 83.141 7.408 82.629 7.92C82.3943 8.15467 82.1917 8.432 82.021 8.752C81.8503 9.05067 81.765 9.38133 81.765 9.744V14.352V18.96C81.765 19.472 81.829 19.92 81.957 20.304C81.9997 20.5173 82.0637 20.7093 82.149 20.88C82.2557 21.0293 82.3623 21.1893 82.469 21.36C82.7037 21.6587 82.981 21.872 83.301 22C83.621 22.1493 84.0157 22.224 84.485 22.224C84.9757 22.224 85.381 22.1493 85.701 22C86.021 21.872 86.2983 21.6587 86.533 21.36C86.6397 21.1893 86.7357 21.0293 86.821 20.88C86.9277 20.7093 87.0023 20.5173 87.045 20.304C87.173 19.92 87.237 19.472 87.237 18.96V17.872V16.784H86.629H86.021C85.4237 16.784 84.9437 16.5813 84.581 16.176C84.1757 15.7707 83.973 15.28 83.973 14.704C83.973 14.128 84.1757 13.6373 84.581 13.232C84.9437 12.8267 85.4237 12.624 86.021 12.624H87.717H89.797Z"/>
</mask>
<path d="M15.856 6.48C16.1547 7.07733 16.3787 7.67467 16.528 8.272C16.592 8.57067 16.6453 8.89067 16.688 9.232C16.7307 9.552 16.752 9.89333 16.752 10.256V16.976V23.664C16.752 24.3253 16.528 24.88 16.08 25.328C15.5893 25.776 15.0347 26 14.416 26C13.776 26 13.232 25.776 12.784 25.328C12.336 24.88 12.112 24.3253 12.112 23.664V21.392V19.12C12.112 19.0347 12.08 18.96 12.016 18.896C11.952 18.832 11.8773 18.8 11.792 18.8H9.36H6.96C6.87467 18.8 6.8 18.832 6.736 18.896C6.672 18.9387 6.64 19.0133 6.64 19.12V21.392V23.664C6.64 24.3253 6.416 24.88 5.968 25.328C5.52 25.776 4.976 26 4.336 26C3.67467 26 3.12 25.776 2.672 25.328C2.224 24.88 2 24.3253 2 23.664V16.976V10.256C2 9.50933 2.07467 8.848 2.224 8.272C2.30933 7.952 2.39467 7.65333 2.48 7.376C2.58667 7.07733 2.72533 6.77867 2.896 6.48C3.17333 5.968 3.52533 5.47733 3.952 5.008C4.18667 4.79467 4.42133 4.60267 4.656 4.432C4.89067 4.24 5.14667 4.06933 5.424 3.92C5.95733 3.62133 6.56533 3.38667 7.248 3.216C7.97333 3.04533 8.67733 2.96 9.36 2.96C9.744 2.96 10.1067 2.98133 10.448 3.024C10.8107 3.06667 11.1627 3.13067 11.504 3.216C12.1867 3.38667 12.784 3.62133 13.296 3.92C13.5947 4.06933 13.8613 4.24 14.096 4.432C14.3307 4.60267 14.5547 4.79467 14.768 5.008C15.1947 5.456 15.5573 5.94667 15.856 6.48ZM6.96 14.704H9.36H11.792C11.8773 14.704 11.952 14.672 12.016 14.608C12.0373 14.5653 12.0587 14.5333 12.08 14.512C12.1013 14.4693 12.112 14.4267 12.112 14.384V12.4V10.448C12.112 9.97867 12.048 9.53067 11.92 9.104C11.8347 8.76267 11.664 8.41067 11.408 8.048C11.1733 7.74933 10.896 7.536 10.576 7.408C10.256 7.25867 9.85067 7.184 9.36 7.184C8.89067 7.184 8.496 7.25867 8.176 7.408C7.856 7.536 7.57867 7.74933 7.344 8.048C7.088 8.41067 6.91733 8.76267 6.832 9.104C6.704 9.53067 6.64 9.97867 6.64 10.448V12.4V14.384C6.64 14.4693 6.672 14.544 6.736 14.608C6.8 14.672 6.87467 14.704 6.96 14.704ZM30.1248 16.432L31.6928 19.536L33.2608 22.64C33.4101 22.9387 33.4848 23.2373 33.4848 23.536C33.5061 23.8347 33.4741 24.1227 33.3888 24.4C33.1968 24.9973 32.8021 25.4453 32.2048 25.744C31.6288 26.0427 31.0421 26.0853 30.4448 25.872C29.8261 25.6587 29.3781 25.2747 29.1008 24.72L27.2128 20.976L25.3568 17.264C25.2928 17.1573 25.2181 17.072 25.1328 17.008C25.0261 16.944 24.9088 16.912 24.7808 16.912H24.6208H24.4288C24.3434 16.912 24.2688 16.944 24.2048 17.008C24.1408 17.072 24.1088 17.1467 24.1088 17.232V20.464V23.664C24.1088 24.3253 23.8848 24.88 23.4368 25.328C22.9888 25.776 22.4448 26 21.8048 26C21.1434 26 20.5888 25.776 20.1408 25.328C19.6928 24.88 19.4688 24.3253 19.4688 23.664V14.576V5.488C19.4688 4.912 19.6714 4.42133 20.0768 4.016C20.4821 3.61067 20.9728 3.408 21.5488 3.408H24.0448H26.5088C27.2128 3.408 27.8528 3.48267 28.4288 3.632C28.7274 3.696 29.0154 3.78133 29.2928 3.888C29.5914 3.99467 29.8794 4.112 30.1568 4.24C30.4341 4.38933 30.6901 4.54933 30.9248 4.72C31.1594 4.86933 31.3834 5.05067 31.5968 5.264C32.0661 5.66933 32.4394 6.11733 32.7168 6.608C33.0581 7.16267 33.3034 7.71733 33.4528 8.272C33.6021 8.80533 33.6768 9.43467 33.6768 10.16C33.6768 10.8853 33.6021 11.5147 33.4528 12.048C33.3034 12.6027 33.0581 13.1573 32.7168 13.712C32.5674 13.9467 32.4074 14.1707 32.2368 14.384C32.0661 14.5973 31.8848 14.8 31.6928 14.992C31.3088 15.3547 30.8608 15.6853 30.3488 15.984H30.3168L30.2848 16.016C30.2208 16.0373 30.1674 16.0907 30.1248 16.176C30.1034 16.2613 30.1034 16.3467 30.1248 16.432ZM24.1088 7.888V10.16V12.432C24.1088 12.56 24.1408 12.6347 24.2048 12.656C24.2688 12.72 24.3434 12.752 24.4288 12.752H25.3568H26.2848C26.6474 12.752 27.0101 12.6987 27.3728 12.592C27.6714 12.5067 27.9701 12.336 28.2688 12.08C28.5034 11.888 28.6954 11.6213 28.8448 11.28C28.9728 10.96 29.0368 10.5867 29.0368 10.16C29.0368 9.73333 28.9728 9.36 28.8448 9.04C28.6954 8.69867 28.5034 8.432 28.2688 8.24C27.9701 7.984 27.6714 7.81333 27.3728 7.728C27.0101 7.62133 26.6474 7.568 26.2848 7.568H25.3568H24.4288C24.3434 7.568 24.2688 7.6 24.2048 7.664C24.1408 7.70667 24.1088 7.78133 24.1088 7.888ZM40.7063 21.584C40.9409 21.8187 41.1329 22.1173 41.2823 22.48C41.4316 22.7787 41.5063 23.1307 41.5063 23.536C41.5063 23.9627 41.4316 24.3253 41.2823 24.624C41.1329 24.9867 40.9409 25.2853 40.7063 25.52C40.4289 25.7547 40.1303 25.9573 39.8103 26.128C39.4476 26.256 39.0743 26.32 38.6903 26.32C38.2849 26.32 37.9223 26.256 37.6023 26.128C37.4316 26.0427 37.2716 25.9573 37.1223 25.872C36.9729 25.7653 36.8343 25.648 36.7063 25.52C36.4289 25.2427 36.2263 24.944 36.0983 24.624C35.9703 24.304 35.9062 23.9413 35.9062 23.536C35.9062 23.152 35.9703 22.8 36.0983 22.48C36.2263 22.16 36.4289 21.8613 36.7063 21.584C36.8343 21.456 36.9729 21.3493 37.1223 21.264C37.2716 21.1573 37.4316 21.0613 37.6023 20.976C37.9223 20.848 38.2849 20.784 38.6903 20.784C39.0743 20.784 39.4476 20.848 39.8103 20.976C40.1303 21.1467 40.4289 21.3493 40.7063 21.584ZM57.03 7.024C57.1793 7.32266 57.3073 7.62133 57.414 7.92C57.5207 8.19733 57.606 8.496 57.67 8.816C57.8193 9.41333 57.894 10.0853 57.894 10.832V14.704V18.608C57.894 19.3333 57.8193 19.9947 57.67 20.592C57.542 21.2107 57.3287 21.808 57.03 22.384C56.774 22.9173 56.422 23.4187 55.974 23.888C55.5473 24.336 55.0673 24.72 54.534 25.04C54.022 25.3387 53.4247 25.5733 52.742 25.744C52.0593 25.9147 51.366 26 50.662 26H48.262H45.83C45.254 26 44.7633 25.7973 44.358 25.392C43.9527 24.9867 43.75 24.496 43.75 23.92V14.704V5.488C43.75 4.912 43.9527 4.42133 44.358 4.016C44.7633 3.61067 45.254 3.408 45.83 3.408H48.262H50.662C51.366 3.408 52.0593 3.49333 52.742 3.664C53.4247 3.83467 54.022 4.06933 54.534 4.368C55.0673 4.688 55.5473 5.072 55.974 5.52C56.3793 5.94667 56.7313 6.448 57.03 7.024ZM48.39 7.952V14.704V21.456C48.39 21.5627 48.422 21.648 48.486 21.712C48.5713 21.7547 48.646 21.776 48.71 21.776H49.574H50.438C50.9287 21.776 51.334 21.7013 51.654 21.552C51.9953 21.424 52.2833 21.2 52.518 20.88C52.7527 20.6027 52.934 20.24 53.062 19.792C53.19 19.3867 53.254 18.928 53.254 18.416V14.704V10.992C53.254 10.5013 53.19 10.0427 53.062 9.616C52.934 9.168 52.7527 8.80533 52.518 8.528C52.4113 8.37867 52.2833 8.25067 52.134 8.144C51.9847 8.016 51.8247 7.92 51.654 7.856C51.334 7.70667 50.9287 7.632 50.438 7.632H49.574H48.71C48.6247 7.632 48.55 7.664 48.486 7.728C48.422 7.77067 48.39 7.84533 48.39 7.952ZM73.981 6.48C74.2797 7.07733 74.5037 7.67467 74.653 8.272C74.717 8.57067 74.7703 8.89067 74.813 9.232C74.8557 9.552 74.877 9.89333 74.877 10.256V14.704V19.152C74.877 19.5147 74.8557 19.8667 74.813 20.208C74.7703 20.528 74.717 20.848 74.653 21.168C74.4823 21.808 74.2583 22.3947 73.981 22.928C73.6823 23.4827 73.3197 23.9733 72.893 24.4C72.445 24.848 71.9543 25.2213 71.421 25.52C71.1437 25.6693 70.8557 25.808 70.557 25.936C70.2583 26.0427 69.949 26.128 69.629 26.192C69.2877 26.2773 68.9357 26.3413 68.573 26.384C68.2317 26.4267 67.869 26.448 67.485 26.448C66.8023 26.448 66.0983 26.3627 65.373 26.192C65.053 26.128 64.7437 26.0427 64.445 25.936C64.1463 25.808 63.8477 25.6693 63.549 25.52C63.2717 25.3493 63.0157 25.1787 62.781 25.008C62.5463 24.816 62.3117 24.6133 62.077 24.4C61.6503 23.9307 61.2983 23.44 61.021 22.928C60.8503 22.6507 60.7117 22.3627 60.605 22.064C60.5197 21.7653 60.4343 21.4667 60.349 21.168C60.1997 20.5707 60.125 19.8987 60.125 19.152V14.704V10.256C60.125 9.50933 60.1997 8.848 60.349 8.272C60.4343 7.952 60.5197 7.65333 60.605 7.376C60.7117 7.07733 60.8503 6.77867 61.021 6.48C61.2983 5.968 61.6503 5.47733 62.077 5.008C62.3117 4.79467 62.5463 4.60267 62.781 4.432C63.0157 4.24 63.2717 4.06933 63.549 3.92C64.0823 3.62133 64.6903 3.38667 65.373 3.216C66.0983 3.04533 66.8023 2.96 67.485 2.96C67.869 2.96 68.2317 2.98133 68.573 3.024C68.9357 3.06667 69.2877 3.13067 69.629 3.216C70.3117 3.38667 70.909 3.62133 71.421 3.92C71.7197 4.06933 71.9863 4.24 72.221 4.432C72.4557 4.60267 72.6797 4.79467 72.893 5.008C73.3197 5.456 73.6823 5.94667 73.981 6.48ZM64.765 10.448V14.704V18.96C64.765 19.472 64.829 19.92 64.957 20.304C64.9997 20.5173 65.0637 20.7093 65.149 20.88C65.2557 21.0293 65.3623 21.1893 65.469 21.36C65.7037 21.6587 65.981 21.872 66.301 22C66.621 22.1493 67.0157 22.224 67.485 22.224C67.9757 22.224 68.381 22.1493 68.701 22C69.021 21.872 69.2983 21.6587 69.533 21.36C69.6397 21.1893 69.7357 21.0293 69.821 20.88C69.9277 20.7093 70.0023 20.5173 70.045 20.304C70.173 19.92 70.237 19.472 70.237 18.96V14.704V10.448C70.237 9.97867 70.173 9.53067 70.045 9.104C69.9597 8.76267 69.789 8.41067 69.533 8.048C69.2983 7.74933 69.021 7.536 68.701 7.408C68.381 7.25867 67.9757 7.184 67.485 7.184C67.0157 7.184 66.621 7.25867 66.301 7.408C65.981 7.536 65.7037 7.74933 65.469 8.048C65.213 8.41067 65.0423 8.76267 64.957 9.104C64.829 9.53067 64.765 9.97867 64.765 10.448ZM89.797 12.624C90.373 12.624 90.8637 12.8267 91.269 13.232C91.6743 13.6373 91.877 14.128 91.877 14.704V16.944V19.152C91.877 19.5147 91.8557 19.8667 91.813 20.208C91.7703 20.528 91.717 20.848 91.653 21.168C91.4823 21.808 91.2583 22.3947 90.981 22.928C90.6823 23.4827 90.3197 23.9733 89.893 24.4C89.445 24.848 88.9543 25.2213 88.421 25.52C88.1437 25.6693 87.8557 25.808 87.557 25.936C87.2583 26.0427 86.949 26.128 86.629 26.192C86.2877 26.2773 85.9357 26.3413 85.573 26.384C85.2317 26.4267 84.869 26.448 84.485 26.448C83.8023 26.448 83.0983 26.3627 82.373 26.192C82.053 26.128 81.7437 26.0427 81.445 25.936C81.1463 25.808 80.8477 25.6693 80.549 25.52C80.2717 25.3493 80.0157 25.1787 79.781 25.008C79.5463 24.816 79.3117 24.6133 79.077 24.4C78.6503 23.9307 78.2983 23.44 78.021 22.928C77.8503 22.6507 77.7117 22.3627 77.605 22.064C77.5197 21.7653 77.4343 21.4667 77.349 21.168C77.1997 20.5707 77.125 19.8987 77.125 19.152V14.704V10.256C77.125 9.50933 77.1997 8.848 77.349 8.272C77.4343 7.952 77.5197 7.65333 77.605 7.376C77.7117 7.07733 77.8503 6.77867 78.021 6.48C78.2983 5.968 78.6503 5.47733 79.077 5.008C79.3117 4.79467 79.5463 4.60267 79.781 4.432C80.0157 4.24 80.2717 4.06933 80.549 3.92C81.0823 3.62133 81.6903 3.38667 82.373 3.216C83.0983 3.04533 83.8023 2.96 84.485 2.96C84.869 2.96 85.2317 2.98133 85.573 3.024C85.9357 3.06667 86.2877 3.13067 86.629 3.216C87.3117 3.38667 87.909 3.62133 88.421 3.92C88.869 4.15467 89.253 4.42133 89.573 4.72C89.7437 4.86933 89.9037 5.02933 90.053 5.2C90.2023 5.37067 90.3517 5.54133 90.501 5.712C90.9063 6.24533 91.0877 6.81067 91.045 7.408C91.0023 8.00533 90.7357 8.496 90.245 8.88C89.7757 9.24267 89.1997 9.392 88.517 9.328C88.197 9.28533 87.8877 9.2 87.589 9.072C87.2903 8.92267 87.0343 8.70933 86.821 8.432C86.501 8.048 86.1703 7.73867 85.829 7.504C85.4023 7.26933 84.9543 7.152 84.485 7.152C83.7597 7.152 83.141 7.408 82.629 7.92C82.3943 8.15467 82.1917 8.432 82.021 8.752C81.8503 9.05067 81.765 9.38133 81.765 9.744V14.352V18.96C81.765 19.472 81.829 19.92 81.957 20.304C81.9997 20.5173 82.0637 20.7093 82.149 20.88C82.2557 21.0293 82.3623 21.1893 82.469 21.36C82.7037 21.6587 82.981 21.872 83.301 22C83.621 22.1493 84.0157 22.224 84.485 22.224C84.9757 22.224 85.381 22.1493 85.701 22C86.021 21.872 86.2983 21.6587 86.533 21.36C86.6397 21.1893 86.7357 21.0293 86.821 20.88C86.9277 20.7093 87.0023 20.5173 87.045 20.304C87.173 19.92 87.237 19.472 87.237 18.96V17.872V16.784H86.629H86.021C85.4237 16.784 84.9437 16.5813 84.581 16.176C84.1757 15.7707 83.973 15.28 83.973 14.704C83.973 14.128 84.1757 13.6373 84.581 13.232C84.9437 12.8267 85.4237 12.624 86.021 12.624H87.717H89.797Z" fill="#FC822C"/>
<path d="M15.856 6.48L17.6449 5.58557L17.6239 5.54367L17.601 5.50279L15.856 6.48ZM16.528 8.272L18.4836 7.85294L18.4765 7.81981L18.4683 7.78693L16.528 8.272ZM16.688 9.232L14.7034 9.48007L14.7045 9.4882L14.7055 9.49633L16.688 9.232ZM16.08 25.328L17.4285 26.805L17.4621 26.7743L17.4942 26.7422L16.08 25.328ZM12.016 18.896L13.4302 17.4818L13.4302 17.4818L12.016 18.896ZM6.736 18.896L7.8454 20.5601L8.01018 20.4502L8.15021 20.3102L6.736 18.896ZM5.968 25.328L4.55379 23.9138L4.55379 23.9138L5.968 25.328ZM2.224 8.272L0.291484 7.75666L0.288006 7.77008L2.224 8.272ZM2.48 7.376L0.596516 6.70333L0.581538 6.74526L0.568442 6.78783L2.48 7.376ZM2.896 6.48L4.63249 7.47228L4.64376 7.45255L4.65458 7.43257L2.896 6.48ZM3.952 5.008L2.60666 3.52812L2.53618 3.59218L2.47212 3.66265L3.952 5.008ZM4.656 4.432L5.83235 6.04947L5.8784 6.01598L5.92248 5.97991L4.656 4.432ZM5.424 3.92L6.3722 5.68094L6.38677 5.67309L6.40121 5.66501L5.424 3.92ZM7.248 3.216L6.78992 1.26917L6.7764 1.27235L6.76293 1.27571L7.248 3.216ZM10.448 3.024L10.1999 5.00855L10.2071 5.00945L10.2143 5.0103L10.448 3.024ZM11.504 3.216L11.0189 5.15628L11.0189 5.15629L11.504 3.216ZM13.296 3.92L12.2883 5.64756L12.3439 5.68003L12.4016 5.70885L13.296 3.92ZM14.096 4.432L12.8295 5.97991L12.8736 6.01598L12.9197 6.04947L14.096 4.432ZM14.768 5.008L16.2163 3.62869L16.1995 3.61103L16.1822 3.59379L14.768 5.008ZM12.016 14.608L13.4302 16.0222L13.6597 15.7927L13.8049 15.5024L12.016 14.608ZM12.08 14.512L13.4942 15.9262L13.7237 15.6967L13.8689 15.4064L12.08 14.512ZM11.92 9.104L9.97971 9.58907L9.99099 9.63417L10.0043 9.6787L11.92 9.104ZM11.408 8.048L13.0419 6.89463L13.0123 6.85271L12.9806 6.81236L11.408 8.048ZM10.576 7.408L9.73023 9.22037L9.7811 9.24411L9.83322 9.26495L10.576 7.408ZM8.176 7.408L8.91878 9.26495L8.9709 9.24411L9.02177 9.22037L8.176 7.408ZM7.344 8.048L5.77136 6.81236L5.73966 6.85271L5.71006 6.89463L7.344 8.048ZM6.832 9.104L8.74765 9.6787L8.76101 9.63417L8.77229 9.58907L6.832 9.104ZM6.736 14.608L5.32178 16.0222L5.32179 16.0222L6.736 14.608ZM15.856 6.48L14.0671 7.37443C14.306 7.85215 14.4766 8.31267 14.5877 8.75707L16.528 8.272L18.4683 7.78693C18.2807 7.03666 18.0033 6.30251 17.6449 5.58557L15.856 6.48ZM16.528 8.272L14.5724 8.69106C14.6229 8.92665 14.6671 9.1891 14.7034 9.48007L16.688 9.232L18.6726 8.98393C18.6236 8.59223 18.5611 8.21468 18.4836 7.85294L16.528 8.272ZM16.688 9.232L14.7055 9.49633C14.7352 9.71878 14.752 9.97113 14.752 10.256H16.752H18.752C18.752 9.81554 18.7261 9.38522 18.6705 8.96767L16.688 9.232ZM16.752 10.256H14.752V16.976H16.752H18.752V10.256H16.752ZM16.752 16.976H14.752V23.664H16.752H18.752V16.976H16.752ZM16.752 23.664H14.752C14.752 23.7651 14.7357 23.8117 14.7295 23.8271C14.724 23.8408 14.7113 23.8683 14.6658 23.9138L16.08 25.328L17.4942 26.7422C18.3352 25.9012 18.752 24.8299 18.752 23.664H16.752ZM16.08 25.328L14.7315 23.851C14.5796 23.9897 14.4968 24 14.416 24V26V28C15.5725 28 16.5991 27.5623 17.4285 26.805L16.08 25.328ZM14.416 26V24C14.3341 24 14.2995 23.9867 14.2895 23.9826C14.2799 23.9787 14.25 23.9656 14.1982 23.9138L12.784 25.328L11.3698 26.7422C12.1971 27.5695 13.2516 28 14.416 28V26ZM12.784 25.328L14.1982 23.9138C14.1527 23.8683 14.14 23.8408 14.1345 23.8271C14.1283 23.8117 14.112 23.7651 14.112 23.664H12.112H10.112C10.112 24.8299 10.5288 25.9012 11.3698 26.7422L12.784 25.328ZM12.112 23.664H14.112V21.392H12.112H10.112V23.664H12.112ZM12.112 21.392H14.112V19.12H12.112H10.112V21.392H12.112ZM12.112 19.12H14.112C14.112 18.4696 13.844 17.8956 13.4302 17.4818L12.016 18.896L10.6018 20.3102C10.4744 20.1828 10.3448 20.0096 10.2497 19.7878C10.1537 19.5637 10.112 19.3343 10.112 19.12H12.112ZM12.016 18.896L13.4302 17.4818C13.0164 17.068 12.4424 16.8 11.792 16.8V18.8V20.8C11.5777 20.8 11.3483 20.7583 11.1242 20.6623C10.9024 20.5672 10.7292 20.4376 10.6018 20.3102L12.016 18.896ZM11.792 18.8V16.8H9.36V18.8V20.8H11.792V18.8ZM9.36 18.8V16.8H6.96V18.8V20.8H9.36V18.8ZM6.96 18.8V16.8C6.30956 16.8 5.73561 17.068 5.32179 17.4818L6.736 18.896L8.15021 20.3102C8.0228 20.4376 7.84963 20.5672 7.62784 20.6623C7.40374 20.7583 7.17427 20.8 6.96 20.8V18.8ZM6.736 18.896L5.6266 17.2319C4.80636 17.7787 4.64 18.6271 4.64 19.12H6.64H8.64C8.64 19.2568 8.62075 19.4954 8.50229 19.7718C8.37448 20.0701 8.15474 20.3539 7.8454 20.5601L6.736 18.896ZM6.64 19.12H4.64V21.392H6.64H8.64V19.12H6.64ZM6.64 21.392H4.64V23.664H6.64H8.64V21.392H6.64ZM6.64 23.664H4.64C4.64 23.7651 4.62374 23.8117 4.61752 23.8271C4.61198 23.8408 4.59925 23.8683 4.55379 23.9138L5.968 25.328L7.38221 26.7422C8.22322 25.9012 8.64 24.8299 8.64 23.664H6.64ZM5.968 25.328L4.55379 23.9138C4.50199 23.9656 4.47206 23.9787 4.4625 23.9826C4.45254 23.9867 4.41787 24 4.336 24V26V28C5.50038 28 6.55488 27.5695 7.38221 26.7422L5.968 25.328ZM4.336 26V24C4.23488 24 4.18835 23.9837 4.17293 23.9775C4.15921 23.972 4.13168 23.9593 4.08621 23.9138L2.672 25.328L1.25779 26.7422C2.09879 27.5832 3.17014 28 4.336 28V26ZM2.672 25.328L4.08621 23.9138C4.04075 23.8683 4.02802 23.8408 4.02248 23.8271C4.01626 23.8117 4 23.7651 4 23.664H2H0C0 24.8299 0.416781 25.9012 1.25779 26.7422L2.672 25.328ZM2 23.664H4V16.976H2H0V23.664H2ZM2 16.976H4V10.256H2H0V16.976H2ZM2 10.256H4C4 9.63775 4.06233 9.15062 4.15999 8.77392L2.224 8.272L0.288006 7.77008C0.0870021 8.54538 0 9.38091 0 10.256H2ZM2.224 8.272L4.15647 8.78733C4.23618 8.48841 4.3146 8.21427 4.39156 7.96417L2.48 7.376L0.568442 6.78783C0.47473 7.09239 0.382485 7.41559 0.29153 7.75667L2.224 8.272ZM2.48 7.376L4.36348 8.04867C4.42747 7.86951 4.51525 7.67744 4.63249 7.47228L2.896 6.48L1.15951 5.48772C0.935414 5.8799 0.745862 6.28516 0.596516 6.70333L2.48 7.376ZM2.896 6.48L4.65458 7.43257C4.84869 7.07422 5.10403 6.71398 5.43188 6.35334L3.952 5.008L2.47212 3.66265C1.94664 4.24069 1.49798 4.86178 1.13742 5.52743L2.896 6.48ZM3.952 5.008L5.29735 6.48788C5.48312 6.319 5.66159 6.17366 5.83235 6.04947L4.656 4.432L3.47966 2.81453C3.18108 3.03168 2.89022 3.27034 2.60666 3.52812L3.952 5.008ZM4.656 4.432L5.92248 5.97991C6.05435 5.87202 6.20317 5.77196 6.3722 5.68094L5.424 3.92L4.4758 2.15906C4.09017 2.36671 3.72699 2.60798 3.38952 2.88408L4.656 4.432ZM5.424 3.92L6.40121 5.66501C6.75862 5.46486 7.19702 5.2903 7.73307 5.15629L7.248 3.216L6.76293 1.27571C5.93364 1.48303 5.15605 1.7778 4.44679 2.17499L5.424 3.92ZM7.248 3.216L7.70608 5.16283C8.29484 5.0243 8.8449 4.96 9.36 4.96V2.96V0.959999C8.50977 0.959999 7.65183 1.06636 6.78992 1.26917L7.248 3.216ZM9.36 2.96V4.96C9.67046 4.96 9.94971 4.97728 10.1999 5.00855L10.448 3.024L10.6961 1.03944C10.2636 0.985387 9.81754 0.959999 9.36 0.959999V2.96ZM10.448 3.024L10.2143 5.0103C10.4955 5.04338 10.7634 5.0924 11.0189 5.15628L11.504 3.216L11.9891 1.27571C11.562 1.16893 11.1259 1.08995 10.6817 1.0377L10.448 3.024ZM11.504 3.216L11.0189 5.15629C11.5514 5.28941 11.9667 5.45998 12.2883 5.64756L13.296 3.92L14.3037 2.19244C13.6013 1.78268 12.8219 1.48392 11.9891 1.27571L11.504 3.216ZM13.296 3.92L12.4016 5.70885C12.5809 5.79851 12.7205 5.89068 12.8295 5.97991L14.096 4.432L15.3625 2.88408C15.0022 2.58932 14.6084 2.34015 14.1904 2.13115L13.296 3.92ZM14.096 4.432L12.9197 6.04947C13.0666 6.15632 13.2114 6.27982 13.3538 6.42221L14.768 5.008L16.1822 3.59379C15.8979 3.30951 15.5948 3.04901 15.2723 2.81453L14.096 4.432ZM14.768 5.008L13.3197 6.38731C13.6325 6.71569 13.895 7.07156 14.111 7.45721L15.856 6.48L17.601 5.50279C17.2196 4.82177 16.7569 4.19631 16.2163 3.62869L14.768 5.008ZM6.96 14.704V16.704H9.36V14.704V12.704H6.96V14.704ZM9.36 14.704V16.704H11.792V14.704V12.704H9.36V14.704ZM11.792 14.704V16.704C12.4424 16.704 13.0164 16.436 13.4302 16.0222L12.016 14.608L10.6018 13.1938C10.7292 13.0664 10.9024 12.9368 11.1242 12.8417C11.3483 12.7457 11.5777 12.704 11.792 12.704V14.704ZM12.016 14.608L13.8049 15.5024C13.7868 15.5384 13.7568 15.5943 13.7121 15.6614C13.6686 15.7267 13.598 15.8225 13.4942 15.9262L12.08 14.512L10.6658 13.0978C10.4305 13.333 10.2955 13.5768 10.2271 13.7136L12.016 14.608ZM12.08 14.512L13.8689 15.4064C14.0125 15.1192 14.112 14.7722 14.112 14.384H12.112H10.112C10.112 14.0811 10.1902 13.8195 10.2911 13.6176L12.08 14.512ZM12.112 14.384H14.112V12.4H12.112H10.112V14.384H12.112ZM12.112 12.4H14.112V10.448H12.112H10.112V12.4H12.112ZM12.112 10.448H14.112C14.112 9.79448 14.0225 9.15217 13.8357 8.5293L11.92 9.104L10.0043 9.6787C10.0735 9.90916 10.112 10.1629 10.112 10.448H12.112ZM11.92 9.104L13.8603 8.61893C13.7016 7.98418 13.4047 7.40851 13.0419 6.89463L11.408 8.048L9.77406 9.20137C9.92333 9.41282 9.96774 9.54115 9.97971 9.58907L11.92 9.104ZM11.408 8.048L12.9806 6.81236C12.5515 6.26622 11.9978 5.82265 11.3188 5.55104L10.576 7.408L9.83322 9.26495C9.82754 9.26268 9.82149 9.25978 9.81572 9.25649C9.80998 9.2532 9.80619 9.25049 9.80458 9.24925C9.80302 9.24805 9.80484 9.24926 9.80979 9.25421C9.81479 9.25922 9.82351 9.26855 9.83536 9.28364L11.408 8.048ZM10.576 7.408L11.4218 5.59563C10.7548 5.28437 10.0362 5.184 9.36 5.184V7.184V9.184C9.66517 9.184 9.75722 9.23296 9.73023 9.22037L10.576 7.408ZM9.36 7.184V5.184C8.69004 5.184 7.98713 5.28908 7.33023 5.59563L8.176 7.408L9.02177 9.22037C9.00487 9.22825 9.09129 9.184 9.36 9.184V7.184ZM8.176 7.408L7.43322 5.55104C6.75421 5.82265 6.20047 6.26622 5.77136 6.81236L7.344 8.048L8.91664 9.28364C8.92849 9.26855 8.93721 9.25922 8.94221 9.25421C8.94716 9.24926 8.94898 9.24805 8.94742 9.24925C8.94581 9.25049 8.94202 9.2532 8.93628 9.25649C8.93051 9.25978 8.92446 9.26268 8.91878 9.26495L8.176 7.408ZM7.344 8.048L5.71006 6.89463C5.34733 7.40851 5.0504 7.98418 4.89171 8.61893L6.832 9.104L8.77229 9.58907C8.78426 9.54115 8.82867 9.41282 8.97794 9.20136L7.344 8.048ZM6.832 9.104L4.91635 8.5293C4.72949 9.15217 4.64 9.79448 4.64 10.448H6.64H8.64C8.64 10.1629 8.67851 9.90916 8.74765 9.6787L6.832 9.104ZM6.64 10.448H4.64V12.4H6.64H8.64V10.448H6.64ZM6.64 12.4H4.64V14.384H6.64H8.64V12.4H6.64ZM6.64 14.384H4.64C4.64 15.0344 4.90796 15.6084 5.32178 16.0222L6.736 14.608L8.15022 13.1938C8.27762 13.3212 8.40724 13.4944 8.50229 13.7162C8.59833 13.9403 8.64 14.1697 8.64 14.384H6.64ZM6.736 14.608L5.32179 16.0222C5.73561 16.436 6.30956 16.704 6.96 16.704V14.704V12.704C7.17427 12.704 7.40374 12.7457 7.62784 12.8417C7.84963 12.9368 8.0228 13.0664 8.15021 13.1938L6.736 14.608ZM30.1248 16.432L28.1845 16.9171L28.2387 17.1341L28.3396 17.3338L30.1248 16.432ZM31.6928 19.536L33.4779 18.6342L33.4779 18.6342L31.6928 19.536ZM33.2608 22.64L35.0496 21.7456L35.0459 21.7382L33.2608 22.64ZM33.4848 23.536H31.4848V23.6073L31.4898 23.6785L33.4848 23.536ZM33.3888 24.4L35.2928 25.012L35.2966 25.0001L35.3003 24.9882L33.3888 24.4ZM32.2048 25.744L31.3103 23.9551L31.2972 23.9617L31.2841 23.9685L32.2048 25.744ZM30.4448 25.872L31.1174 23.9885L31.1071 23.9848L31.0967 23.9813L30.4448 25.872ZM29.1008 24.72L30.8896 23.8256L30.8865 23.8195L29.1008 24.72ZM27.2128 20.976L25.4239 21.8704L25.427 21.8765L27.2128 20.976ZM25.3568 17.264L27.1456 16.3696L27.1113 16.3009L27.0717 16.235L25.3568 17.264ZM25.1328 17.008L26.3327 15.408L26.2502 15.3461L26.1617 15.293L25.1328 17.008ZM24.2048 17.008L22.7905 15.5938L22.7905 15.5938L24.2048 17.008ZM23.4368 25.328L22.0225 23.9138L22.0225 23.9138L23.4368 25.328ZM28.4288 3.632L27.9268 5.56799L27.968 5.57868L28.0097 5.5876L28.4288 3.632ZM29.2928 3.888L28.5748 5.75469L28.5973 5.76336L28.6201 5.77148L29.2928 3.888ZM30.1568 4.24L31.1049 2.47906L31.0508 2.44988L30.9949 2.42408L30.1568 4.24ZM30.9248 4.72L29.7484 6.33747L29.7986 6.37399L29.851 6.40732L30.9248 4.72ZM31.5968 5.264L30.1825 6.67821L30.2342 6.72988L30.2895 6.77765L31.5968 5.264ZM32.7168 6.608L30.9756 7.59211L30.9939 7.62451L31.0134 7.65619L32.7168 6.608ZM33.4528 8.272L31.5215 8.79195L31.5241 8.80162L31.5268 8.81126L33.4528 8.272ZM33.4528 12.048L31.5268 11.5087L31.5241 11.5184L31.5215 11.5281L33.4528 12.048ZM32.7168 13.712L34.4041 14.7858L34.4122 14.773L34.4201 14.7602L32.7168 13.712ZM32.2368 14.384L33.7985 15.6334L33.7985 15.6334L32.2368 14.384ZM31.6928 14.992L33.066 16.446L33.0868 16.4264L33.107 16.4062L31.6928 14.992ZM30.3488 15.984V17.984H30.8894L31.3565 17.7116L30.3488 15.984ZM30.3168 15.984V13.984H29.4883L28.9025 14.5698L30.3168 15.984ZM30.2848 16.016L30.9172 17.9134L31.3651 17.7641L31.699 17.4302L30.2848 16.016ZM30.1248 16.176L28.3359 15.2816L28.2377 15.4779L28.1845 15.6909L30.1248 16.176ZM24.2048 12.656L25.619 11.2418L25.2851 10.9079L24.8372 10.7586L24.2048 12.656ZM27.3728 12.592L26.8233 10.669L26.8159 10.6711L26.8084 10.6733L27.3728 12.592ZM28.2688 12.08L27.0023 10.5321L26.9846 10.5466L26.9672 10.5615L28.2688 12.08ZM28.8448 11.28L30.6771 12.0816L30.6899 12.0524L30.7017 12.0228L28.8448 11.28ZM28.8448 9.04L30.7017 8.29722L30.6899 8.26759L30.6771 8.23836L28.8448 9.04ZM28.2688 8.24L26.9672 9.75851L26.9846 9.77341L27.0023 9.78791L28.2688 8.24ZM27.3728 7.728L26.8084 9.64673L26.8159 9.64892L26.8233 9.65105L27.3728 7.728ZM24.2048 7.664L25.3141 9.32811L25.4789 9.21825L25.619 9.07821L24.2048 7.664ZM30.1248 16.432L28.3396 17.3338L29.9076 20.4378L31.6928 19.536L33.4779 18.6342L31.9099 15.5302L30.1248 16.432ZM31.6928 19.536L29.9076 20.4378L31.4756 23.5418L33.2608 22.64L35.0459 21.7382L33.4779 18.6342L31.6928 19.536ZM33.2608 22.64L31.4719 23.5344C31.4868 23.5642 31.4894 23.5767 31.4885 23.5731C31.4881 23.5715 31.4871 23.567 31.4862 23.5601C31.4853 23.5531 31.4848 23.5449 31.4848 23.536H33.4848H35.4848C35.4848 22.8918 35.3212 22.2888 35.0496 21.7456L33.2608 22.64ZM33.4848 23.536L31.4898 23.6785C31.4941 23.7386 31.4875 23.7784 31.4772 23.8118L33.3888 24.4L35.3003 24.9882C35.4607 24.467 35.518 23.9308 35.4797 23.3935L33.4848 23.536ZM33.3888 24.4L31.4847 23.788C31.4685 23.8383 31.4543 23.8548 31.448 23.8619C31.4399 23.8712 31.406 23.9073 31.3103 23.9551L32.2048 25.744L33.0992 27.5329C34.1431 27.0109 34.9248 26.157 35.2928 25.012L33.3888 24.4ZM32.2048 25.744L31.2841 23.9685C31.2463 23.9881 31.2209 23.997 31.2074 24.001C31.1943 24.0048 31.1884 24.0052 31.1877 24.0053C31.187 24.0053 31.184 24.0056 31.1761 24.0045C31.1678 24.0033 31.1487 23.9997 31.1174 23.9885L30.4448 25.872L29.7721 27.7555C30.9059 28.1604 32.0691 28.0672 33.1254 27.5195L32.2048 25.744ZM30.4448 25.872L31.0967 23.9813C30.9995 23.9477 30.9594 23.9167 30.9463 23.9055C30.935 23.8957 30.9152 23.8769 30.8896 23.8256L29.1008 24.72L27.3119 25.6144C27.8372 26.665 28.7097 27.3893 29.7928 27.7627L30.4448 25.872ZM29.1008 24.72L30.8865 23.8195L28.9985 20.0755L27.2128 20.976L25.427 21.8765L27.315 25.6205L29.1008 24.72ZM27.2128 20.976L29.0016 20.0816L27.1456 16.3696L25.3568 17.264L23.5679 18.1584L25.4239 21.8704L27.2128 20.976ZM25.3568 17.264L27.0717 16.235C26.8964 15.9428 26.6565 15.6508 26.3327 15.408L25.1328 17.008L23.9328 18.608C23.7797 18.4932 23.6891 18.3718 23.6418 18.293L25.3568 17.264ZM25.1328 17.008L26.1617 15.293C25.7349 15.0369 25.2602 14.912 24.7808 14.912V16.912V18.912C24.5573 18.912 24.3172 18.8511 24.1038 18.723L25.1328 17.008ZM24.7808 16.912V14.912H24.6208V16.912V18.912H24.7808V16.912ZM24.6208 16.912V14.912H24.4288V16.912V18.912H24.6208V16.912ZM24.4288 16.912V14.912C23.7783 14.912 23.2044 15.18 22.7905 15.5938L24.2048 17.008L25.619 18.4222C25.4916 18.5496 25.3184 18.6792 25.0966 18.7743C24.8725 18.8703 24.643 18.912 24.4288 18.912V16.912ZM24.2048 17.008L22.7905 15.5938C22.3767 16.0076 22.1088 16.5816 22.1088 17.232H24.1088H26.1088C26.1088 17.4463 26.0671 17.6757 25.971 17.8998C25.876 18.1216 25.7464 18.2948 25.619 18.4222L24.2048 17.008ZM24.1088 17.232H22.1088V20.464H24.1088H26.1088V17.232H24.1088ZM24.1088 20.464H22.1088V23.664H24.1088H26.1088V20.464H24.1088ZM24.1088 23.664H22.1088C22.1088 23.7651 22.0925 23.8117 22.0863 23.8271C22.0807 23.8408 22.068 23.8683 22.0225 23.9138L23.4368 25.328L24.851 26.7422C25.692 25.9012 26.1088 24.8299 26.1088 23.664H24.1088ZM23.4368 25.328L22.0225 23.9138C21.9707 23.9656 21.9408 23.9787 21.9313 23.9826C21.9213 23.9867 21.8866 24 21.8048 24V26V28C22.9691 28 24.0236 27.5695 24.851 26.7422L23.4368 25.328ZM21.8048 26V24C21.7036 24 21.6571 23.9837 21.6417 23.9775C21.628 23.972 21.6004 23.9593 21.555 23.9138L20.1408 25.328L18.7265 26.7422C19.5675 27.5832 20.6389 28 21.8048 28V26ZM20.1408 25.328L21.555 23.9138C21.5095 23.8683 21.4968 23.8408 21.4912 23.8271C21.485 23.8117 21.4688 23.7651 21.4688 23.664H19.4688H17.4688C17.4688 24.8299 17.8855 25.9012 18.7265 26.7422L20.1408 25.328ZM19.4688 23.664H21.4688V14.576H19.4688H17.4688V23.664H19.4688ZM19.4688 14.576H21.4688V5.488H19.4688H17.4688V14.576H19.4688ZM19.4688 5.488H21.4688C21.4688 5.46169 21.471 5.44836 21.4716 5.44532C21.4721 5.44264 21.4717 5.4456 21.4693 5.45152C21.4668 5.45745 21.4648 5.46034 21.4657 5.459C21.4668 5.45737 21.4737 5.44749 21.491 5.43021L20.0768 4.016L18.6625 2.60179C17.8801 3.38423 17.4688 4.38445 17.4688 5.488H19.4688ZM20.0768 4.016L21.491 5.43021C21.5082 5.41293 21.5181 5.40606 21.5198 5.40495C21.5211 5.40404 21.5182 5.40607 21.5123 5.40852C21.5063 5.41097 21.5034 5.41136 21.5061 5.41085C21.5091 5.41027 21.5224 5.408 21.5488 5.408V3.408V1.408C20.4452 1.408 19.445 1.81934 18.6625 2.60179L20.0768 4.016ZM21.5488 3.408V5.408H24.0448V3.408V1.408H21.5488V3.408ZM24.0448 3.408V5.408H26.5088V3.408V1.408H24.0448V3.408ZM26.5088 3.408V5.408C27.0734 5.408 27.5414 5.46807 27.9268 5.56799L28.4288 3.632L28.9307 1.696C28.1641 1.49726 27.3521 1.408 26.5088 1.408V3.408ZM28.4288 3.632L28.0097 5.5876C28.2094 5.6304 28.3973 5.68642 28.5748 5.75469L29.2928 3.888L30.0107 2.02131C29.6335 1.87624 29.2454 1.7616 28.8478 1.67639L28.4288 3.632ZM29.2928 3.888L28.6201 5.77148C28.8647 5.85886 29.0974 5.95382 29.3186 6.05592L30.1568 4.24L30.9949 2.42408C30.6614 2.27017 30.3181 2.13047 29.9654 2.00451L29.2928 3.888ZM30.1568 4.24L29.2086 6.00094C29.4133 6.11122 29.5923 6.22397 29.7484 6.33747L30.9248 4.72L32.1011 3.10253C31.7878 2.8747 31.4548 2.66745 31.1049 2.47906L30.1568 4.24ZM30.9248 4.72L29.851 6.40732C29.9527 6.47202 30.0638 6.55943 30.1825 6.67821L31.5968 5.264L33.011 3.84979C32.7031 3.5419 32.3662 3.26664 31.9985 3.03267L30.9248 4.72ZM31.5968 5.264L30.2895 6.77765C30.6023 7.04774 30.8222 7.32066 30.9756 7.59211L32.7168 6.608L34.4579 5.62388C34.0566 4.91401 33.5299 4.29093 32.904 3.75035L31.5968 5.264ZM32.7168 6.608L31.0134 7.65619C31.267 8.06825 31.4285 8.4464 31.5215 8.79195L33.4528 8.272L35.384 7.75205C35.1783 6.98827 34.8492 6.25708 34.4201 5.55981L32.7168 6.608ZM33.4528 8.272L31.5268 8.81126C31.6145 9.12453 31.6768 9.56408 31.6768 10.16H33.6768H35.6768C35.6768 9.30526 35.5896 8.48613 35.3787 7.73274L33.4528 8.272ZM33.6768 10.16H31.6768C31.6768 10.7559 31.6145 11.1955 31.5268 11.5087L33.4528 12.048L35.3787 12.5873C35.5896 11.8339 35.6768 11.0147 35.6768 10.16H33.6768ZM33.4528 12.048L31.5215 11.5281C31.4285 11.8736 31.267 12.2517 31.0134 12.6638L32.7168 13.712L34.4201 14.7602C34.8492 14.0629 35.1783 13.3317 35.384 12.5679L33.4528 12.048ZM32.7168 13.712L31.0294 12.6382C30.9181 12.8132 30.7999 12.9785 30.675 13.1346L32.2368 14.384L33.7985 15.6334C34.015 15.3628 34.2168 15.0801 34.4041 14.7858L32.7168 13.712ZM32.2368 14.384L30.675 13.1346C30.5502 13.2907 30.418 13.4383 30.2785 13.5778L31.6928 14.992L33.107 16.4062C33.3515 16.1617 33.582 15.904 33.7985 15.6334L32.2368 14.384ZM31.6928 14.992L30.3195 13.538C30.059 13.784 29.7369 14.0255 29.341 14.2564L30.3488 15.984L31.3565 17.7116C31.9846 17.3452 32.5585 16.9254 33.066 16.446L31.6928 14.992ZM30.3488 15.984V13.984H30.3168V15.984V17.984H30.3488V15.984ZM30.3168 15.984L28.9025 14.5698L28.8705 14.6018L30.2848 16.016L31.699 17.4302L31.731 17.3982L30.3168 15.984ZM30.2848 16.016L29.6523 14.1186C28.9076 14.3669 28.5164 14.9205 28.3359 15.2816L30.1248 16.176L31.9136 17.0704C31.8184 17.2608 31.5339 17.7078 30.9172 17.9134L30.2848 16.016ZM30.1248 16.176L28.1845 15.6909C28.0835 16.0947 28.0835 16.5133 28.1845 16.9171L30.1248 16.432L32.065 15.9469C32.1233 16.1801 32.1233 16.4279 32.065 16.6611L30.1248 16.176ZM24.1088 7.888H22.1088V10.16H24.1088H26.1088V7.888H24.1088ZM24.1088 10.16H22.1088V12.432H24.1088H26.1088V10.16H24.1088ZM24.1088 12.432H22.1088C22.1088 12.6282 22.1281 12.9837 22.2945 13.3718C22.4854 13.8174 22.8884 14.3254 23.5723 14.5534L24.2048 12.656L24.8372 10.7586C25.4571 10.9653 25.8121 11.4252 25.971 11.7962C26.1054 12.1096 26.1088 12.3638 26.1088 12.432H24.1088ZM24.2048 12.656L22.7905 14.0702C23.2044 14.484 23.7783 14.752 24.4288 14.752V12.752V10.752C24.643 10.752 24.8725 10.7937 25.0966 10.8897C25.3184 10.9848 25.4916 11.1144 25.619 11.2418L24.2048 12.656ZM24.4288 12.752V14.752H25.3568V12.752V10.752H24.4288V12.752ZM25.3568 12.752V14.752H26.2848V12.752V10.752H25.3568V12.752ZM26.2848 12.752V14.752C26.8464 14.752 27.399 14.669 27.9371 14.5107L27.3728 12.592L26.8084 10.6733C26.6212 10.7283 26.4484 10.752 26.2848 10.752V12.752ZM27.3728 12.592L27.9222 14.515C28.5612 14.3325 29.1094 13.9936 29.5703 13.5985L28.2688 12.08L26.9672 10.5615C26.8308 10.6784 26.7816 10.6809 26.8233 10.669L27.3728 12.592ZM28.2688 12.08L29.5352 13.6279C30.0647 13.1947 30.4294 12.6477 30.6771 12.0816L28.8448 11.28L27.0124 10.4784C26.987 10.5365 26.9691 10.5627 26.9657 10.5674C26.9631 10.571 26.974 10.5552 27.0023 10.5321L28.2688 12.08ZM28.8448 11.28L30.7017 12.0228C30.9438 11.4177 31.0368 10.7826 31.0368 10.16H29.0368H27.0368C27.0368 10.3908 27.0017 10.5023 26.9878 10.5372L28.8448 11.28ZM29.0368 10.16H31.0368C31.0368 9.53745 30.9438 8.90234 30.7017 8.29722L28.8448 9.04L26.9878 9.78278C27.0017 9.81766 27.0368 9.92922 27.0368 10.16H29.0368ZM28.8448 9.04L30.6771 8.23836C30.4294 7.67228 30.0647 7.12528 29.5352 6.69208L28.2688 8.24L27.0023 9.78791C26.974 9.76475 26.9631 9.74896 26.9657 9.75261C26.9691 9.75731 26.987 9.78346 27.0124 9.84164L28.8448 9.04ZM28.2688 8.24L29.5703 6.72149C29.1094 6.32636 28.5612 5.98753 27.9222 5.80495L27.3728 7.728L26.8233 9.65105C26.7816 9.63914 26.8308 9.64164 26.9672 9.75851L28.2688 8.24ZM27.3728 7.728L27.9371 5.80927C27.399 5.65099 26.8464 5.568 26.2848 5.568V7.568V9.568C26.4484 9.568 26.6212 9.59167 26.8084 9.64673L27.3728 7.728ZM26.2848 7.568V5.568H25.3568V7.568V9.568H26.2848V7.568ZM25.3568 7.568V5.568H24.4288V7.568V9.568H25.3568V7.568ZM24.4288 7.568V5.568C23.7783 5.568 23.2044 5.83597 22.7905 6.24979L24.2048 7.664L25.619 9.07821C25.4916 9.20562 25.3184 9.33523 25.0966 9.43029C24.8725 9.52633 24.643 9.568 24.4288 9.568V7.568ZM24.2048 7.664L23.0954 5.99989C22.2751 6.54672 22.1088 7.39507 22.1088 7.888H24.1088H26.1088C26.1088 8.02481 26.0895 8.26343 25.971 8.53984C25.8432 8.83808 25.6235 9.12188 25.3141 9.32811L24.2048 7.664ZM40.7063 21.584L42.1205 20.1698L42.0616 20.111L41.9981 20.0572L40.7063 21.584ZM41.2823 22.48L39.4329 23.2415L39.4607 23.3091L39.4934 23.3744L41.2823 22.48ZM41.2823 24.624L39.4934 23.7296L39.4607 23.7949L39.4329 23.8625L41.2823 24.624ZM40.7063 25.52L41.9981 27.0468L42.0616 26.993L42.1205 26.9342L40.7063 25.52ZM39.8103 26.128L40.4759 28.014L40.6182 27.9637L40.7514 27.8927L39.8103 26.128ZM37.6023 26.128L36.7078 27.9169L36.7822 27.9541L36.8595 27.985L37.6023 26.128ZM37.1223 25.872L35.9598 27.4995L36.0421 27.5583L36.13 27.6085L37.1223 25.872ZM36.7063 25.52L35.292 26.9342L35.292 26.9342L36.7063 25.52ZM36.0983 22.48L34.2413 21.7372L34.2413 21.7372L36.0983 22.48ZM36.7063 21.584L35.292 20.1698L35.292 20.1698L36.7063 21.584ZM37.1223 21.264L38.1145 23.0005L38.2024 22.9503L38.2847 22.8915L37.1223 21.264ZM37.6023 20.976L36.8595 19.119L36.7822 19.1499L36.7078 19.1871L37.6023 20.976ZM39.8103 20.976L40.7514 19.2113L40.6182 19.1403L40.4759 19.09L39.8103 20.976ZM40.7063 21.584L39.292 22.9982C39.3093 23.0155 39.3661 23.0793 39.4329 23.2415L41.2823 22.48L43.1316 21.7185C42.8997 21.1553 42.5726 20.6219 42.1205 20.1698L40.7063 21.584ZM41.2823 22.48L39.4934 23.3744C39.4773 23.3422 39.5063 23.3757 39.5063 23.536H41.5063H43.5063C43.5063 22.8857 43.3859 22.2151 43.0711 21.5856L41.2823 22.48ZM41.5063 23.536H39.5063C39.5063 23.7358 39.4708 23.7748 39.4934 23.7296L41.2823 24.624L43.0711 25.5184C43.3924 24.8758 43.5063 24.1895 43.5063 23.536H41.5063ZM41.2823 24.624L39.4329 23.8625C39.3661 24.0247 39.3093 24.0885 39.292 24.1058L40.7063 25.52L42.1205 26.9342C42.5726 26.4821 42.8997 25.9487 43.1316 25.3855L41.2823 24.624ZM40.7063 25.52L39.4144 23.9932C39.245 24.1365 39.0639 24.2594 38.8691 24.3633L39.8103 26.128L40.7514 27.8927C41.1966 27.6553 41.6128 27.3728 41.9981 27.0468L40.7063 25.52ZM39.8103 26.128L39.1446 24.242C38.9954 24.2947 38.8472 24.32 38.6903 24.32V26.32V28.32C39.3013 28.32 39.8997 28.2173 40.4759 28.014L39.8103 26.128ZM38.6903 26.32V24.32C38.4953 24.32 38.3911 24.2895 38.345 24.271L37.6023 26.128L36.8595 27.985C37.4534 28.2225 38.0745 28.32 38.6903 28.32V26.32ZM37.6023 26.128L38.4967 24.3391C38.3556 24.2686 38.2285 24.2006 38.1145 24.1355L37.1223 25.872L36.13 27.6085C36.3147 27.714 36.5076 27.8167 36.7078 27.9169L37.6023 26.128ZM37.1223 25.872L38.2847 24.2445C38.2238 24.201 38.1695 24.1548 38.1205 24.1058L36.7063 25.52L35.292 26.9342C35.499 27.1412 35.722 27.3297 35.9598 27.4995L37.1223 25.872ZM36.7063 25.52L38.1205 24.1058C38.0083 23.9937 37.9697 23.9173 37.9552 23.8812L36.0983 24.624L34.2413 25.3668C34.4828 25.9707 34.8495 26.4917 35.292 26.9342L36.7063 25.52ZM36.0983 24.624L37.9552 23.8812C37.9368 23.8352 37.9062 23.7309 37.9062 23.536H35.9062H33.9062C33.9062 24.1517 34.0037 24.7728 34.2413 25.3668L36.0983 24.624ZM35.9062 23.536H37.9062C37.9062 23.3774 37.9319 23.281 37.9552 23.2228L36.0983 22.48L34.2413 21.7372C34.0086 22.319 33.9062 22.9266 33.9062 23.536H35.9062ZM36.0983 22.48L37.9552 23.2228C37.9697 23.1867 38.0083 23.1103 38.1205 22.9982L36.7063 21.584L35.292 20.1698C34.8495 20.6123 34.4828 21.1333 34.2413 21.7372L36.0983 22.48ZM36.7063 21.584L38.1205 22.9982C38.1254 22.9933 38.1272 22.9921 38.1257 22.9932C38.1241 22.9945 38.1203 22.9972 38.1145 23.0005L37.1223 21.264L36.13 19.5275C35.8184 19.7056 35.5391 19.9227 35.292 20.1698L36.7063 21.584ZM37.1223 21.264L38.2847 22.8915C38.3458 22.8479 38.4157 22.8053 38.4967 22.7649L37.6023 20.976L36.7078 19.1871C36.4474 19.3173 36.1974 19.4668 35.9598 19.6365L37.1223 21.264ZM37.6023 20.976L38.345 22.833C38.3911 22.8145 38.4953 22.784 38.6903 22.784V20.784V18.784C38.0745 18.784 37.4534 18.8815 36.8595 19.119L37.6023 20.976ZM38.6903 20.784V22.784C38.8472 22.784 38.9954 22.8093 39.1446 22.862L39.8103 20.976L40.4759 19.09C39.8997 18.8867 39.3013 18.784 38.6903 18.784V20.784ZM39.8103 20.976L38.8691 22.7407C39.0639 22.8446 39.245 22.9675 39.4144 23.1108L40.7063 21.584L41.9981 20.0572C41.6128 19.7312 41.1966 19.4487 40.7514 19.2113L39.8103 20.976ZM57.03 7.024L58.8189 6.12957L58.8123 6.11642L58.8055 6.10336L57.03 7.024ZM57.414 7.92L55.5305 8.59267L55.5386 8.61542L55.5473 8.63796L57.414 7.92ZM57.67 8.816L55.7088 9.20823L55.7182 9.2549L55.7297 9.30107L57.67 8.816ZM57.67 20.592L55.7297 20.1069L55.7198 20.1467L55.7115 20.1868L57.67 20.592ZM57.03 22.384L55.2545 21.4634L55.2403 21.4907L55.227 21.5185L57.03 22.384ZM55.974 23.888L54.5273 22.507L54.5257 22.5087L55.974 23.888ZM54.534 25.04L55.5417 26.7676L55.5524 26.7613L55.563 26.755L54.534 25.04ZM52.742 3.664L52.2569 5.60428L52.2569 5.60429L52.742 3.664ZM54.534 4.368L55.563 2.65301L55.5524 2.64666L55.5417 2.64044L54.534 4.368ZM55.974 5.52L57.424 4.1425L57.4223 4.14069L55.974 5.52ZM48.486 21.712L47.0718 23.1262L47.3013 23.3557L47.5916 23.5009L48.486 21.712ZM51.654 21.552L50.9518 19.6793L50.8788 19.7067L50.8082 19.7396L51.654 21.552ZM52.518 20.88L50.9912 19.5881L50.9463 19.6412L50.9052 19.6973L52.518 20.88ZM53.062 19.792L51.1548 19.1897L51.1465 19.216L51.139 19.2426L53.062 19.792ZM53.062 9.616L51.139 10.1654L51.1426 10.1781L51.1463 10.1907L53.062 9.616ZM52.518 8.528L50.8905 9.69047L50.9382 9.75725L50.9912 9.81989L52.518 8.528ZM52.134 8.144L50.8324 9.66251L50.8996 9.72007L50.9715 9.77147L52.134 8.144ZM51.654 7.856L50.8082 9.66837L50.8788 9.70131L50.9518 9.72866L51.654 7.856ZM48.486 7.728L49.5954 9.39209L49.7602 9.28224L49.9002 9.14222L48.486 7.728ZM57.03 7.024L55.2411 7.91843C55.3564 8.14891 55.4523 8.37362 55.5305 8.59267L57.414 7.92L59.2975 7.24733C59.1624 6.86904 59.0023 6.49642 58.8189 6.12957L57.03 7.024ZM57.414 7.92L55.5473 8.63796C55.6096 8.79987 55.6649 8.98858 55.7088 9.20823L57.67 8.816L59.6312 8.42377C59.5471 8.00341 59.4318 7.5948 59.2807 7.20204L57.414 7.92ZM57.67 8.816L55.7297 9.30107C55.832 9.7104 55.894 10.2155 55.894 10.832H57.894H59.894C59.894 9.95513 59.8066 9.11626 59.6103 8.33093L57.67 8.816ZM57.894 10.832H55.894V14.704H57.894H59.894V10.832H57.894ZM57.894 14.704H55.894V18.608H57.894H59.894V14.704H57.894ZM57.894 18.608H55.894C55.894 19.1979 55.8331 19.6934 55.7297 20.1069L57.67 20.592L59.6103 21.0771C59.8056 20.2959 59.894 19.4687 59.894 18.608H57.894ZM57.67 20.592L55.7115 20.1868C55.6216 20.6213 55.4711 21.0456 55.2545 21.4634L57.03 22.384L58.8055 23.3046C59.1862 22.5704 59.4624 21.8001 59.6285 20.9972L57.67 20.592ZM57.03 22.384L55.227 21.5185C55.0703 21.845 54.8441 22.1751 54.5273 22.507L55.974 23.888L57.4207 25.269C57.9999 24.6622 58.4777 23.9897 58.833 23.2495L57.03 22.384ZM55.974 23.888L54.5257 22.5087C54.2238 22.8258 53.885 23.097 53.505 23.325L54.534 25.04L55.563 26.755C56.2497 26.343 56.8709 25.8462 57.4223 25.2673L55.974 23.888ZM54.534 25.04L53.5263 23.3124C53.2047 23.5 52.7894 23.6706 52.2569 23.8037L52.742 25.744L53.2271 27.6843C54.0599 27.4761 54.8393 27.1773 55.5417 26.7676L54.534 25.04ZM52.742 25.744L52.2569 23.8037C51.733 23.9347 51.2026 24 50.662 24V26V28C51.5294 28 52.3857 27.8946 53.2271 27.6843L52.742 25.744ZM50.662 26V24H48.262V26V28H50.662V26ZM48.262 26V24H45.83V26V28H48.262V26ZM45.83 26V24C45.8037 24 45.7904 23.9977 45.7873 23.9972C45.7846 23.9966 45.7876 23.997 45.7935 23.9995C45.7995 24.0019 45.8023 24.004 45.801 24.003C45.7994 24.0019 45.7895 23.9951 45.7722 23.9778L44.358 25.392L42.9438 26.8062C43.7262 27.5887 44.7265 28 45.83 28V26ZM44.358 25.392L45.7722 23.9778C45.7549 23.9605 45.7481 23.9506 45.747 23.949C45.746 23.9477 45.7481 23.9505 45.7505 23.9565C45.753 23.9624 45.7534 23.9654 45.7528 23.9627C45.7523 23.9596 45.75 23.9463 45.75 23.92H43.75H41.75C41.75 25.0235 42.1613 26.0238 42.9438 26.8062L44.358 25.392ZM43.75 23.92H45.75V14.704H43.75H41.75V23.92H43.75ZM43.75 14.704H45.75V5.488H43.75H41.75V14.704H43.75ZM43.75 5.488H45.75C45.75 5.46169 45.7523 5.44836 45.7528 5.44532C45.7534 5.44264 45.753 5.4456 45.7505 5.45152C45.7481 5.45745 45.746 5.46034 45.747 5.459C45.7481 5.45737 45.7549 5.44749 45.7722 5.43021L44.358 4.016L42.9438 2.60179C42.1613 3.38423 41.75 4.38445 41.75 5.488H43.75ZM44.358 4.016L45.7722 5.43021C45.7895 5.41293 45.7994 5.40606 45.801 5.40495C45.8023 5.40404 45.7995 5.40607 45.7935 5.40852C45.7876 5.41097 45.7846 5.41136 45.7873 5.41085C45.7904 5.41027 45.8037 5.408 45.83 5.408V3.408V1.408C44.7265 1.408 43.7262 1.81934 42.9438 2.60179L44.358 4.016ZM45.83 3.408V5.408H48.262V3.408V1.408H45.83V3.408ZM48.262 3.408V5.408H50.662V3.408V1.408H48.262V3.408ZM50.662 3.408V5.408C51.2026 5.408 51.733 5.4733 52.2569 5.60428L52.742 3.664L53.2271 1.72371C52.3857 1.51337 51.5294 1.408 50.662 1.408V3.408ZM52.742 3.664L52.2569 5.60429C52.7894 5.73741 53.2047 5.90798 53.5263 6.09556L54.534 4.368L55.5417 2.64044C54.8393 2.23068 54.0599 1.93192 53.2271 1.72371L52.742 3.664ZM54.534 4.368L53.505 6.08298C53.885 6.31095 54.2238 6.58225 54.5257 6.89931L55.974 5.52L57.4223 4.14069C56.8709 3.56175 56.2497 3.06504 55.563 2.65301L54.534 4.368ZM55.974 5.52L54.524 6.8975C54.7874 7.17477 55.0336 7.51855 55.2545 7.94463L57.03 7.024L58.8055 6.10336C58.4291 5.37745 57.9713 4.71856 57.424 4.1425L55.974 5.52ZM48.39 7.952H46.39V14.704H48.39H50.39V7.952H48.39ZM48.39 14.704H46.39V21.456H48.39H50.39V14.704H48.39ZM48.39 21.456H46.39C46.39 21.9912 46.5663 22.6207 47.0718 23.1262L48.486 21.712L49.9002 20.2978C50.0715 20.4691 50.2031 20.675 50.2867 20.8978C50.3679 21.1143 50.39 21.3096 50.39 21.456H48.39ZM48.486 21.712L47.5916 23.5009C47.8295 23.6198 48.2207 23.776 48.71 23.776V21.776V19.776C49.0713 19.776 49.3131 19.8895 49.3804 19.9231L48.486 21.712ZM48.71 21.776V23.776H49.574V21.776V19.776H48.71V21.776ZM49.574 21.776V23.776H50.438V21.776V19.776H49.574V21.776ZM50.438 21.776V23.776C51.1142 23.776 51.8328 23.6756 52.4998 23.3644L51.654 21.552L50.8082 19.7396C50.8352 19.727 50.7432 19.776 50.438 19.776V21.776ZM51.654 21.552L52.3562 23.4247C53.0939 23.148 53.6874 22.6674 54.1308 22.0627L52.518 20.88L50.9052 19.6973C50.8877 19.7211 50.8839 19.7203 50.8981 19.7093C50.9047 19.7042 50.9134 19.6983 50.9237 19.6925C50.934 19.6867 50.9437 19.6824 50.9518 19.6793L51.654 21.552ZM52.518 20.88L54.0448 22.1719C54.5067 21.626 54.8003 20.9881 54.985 20.3414L53.062 19.792L51.139 19.2426C51.0677 19.4919 50.9986 19.5794 50.9912 19.5881L52.518 20.88ZM53.062 19.792L54.9692 20.3943C55.1698 19.759 55.254 19.0919 55.254 18.416H53.254H51.254C51.254 18.7641 51.2102 19.0143 51.1548 19.1897L53.062 19.792ZM53.254 18.416H55.254V14.704H53.254H51.254V18.416H53.254ZM53.254 14.704H55.254V10.992H53.254H51.254V14.704H53.254ZM53.254 10.992H55.254C55.254 10.3263 55.1669 9.67227 54.9777 9.0413L53.062 9.616L51.1463 10.1907C51.2131 10.4131 51.254 10.6764 51.254 10.992H53.254ZM53.062 9.616L54.985 9.06656C54.8003 8.41993 54.5067 7.78204 54.0448 7.23611L52.518 8.528L50.9912 9.81989C50.9986 9.82863 51.0677 9.91607 51.139 10.1654L53.062 9.616ZM52.518 8.528L54.1455 7.36553C53.9105 7.0366 53.6254 6.75148 53.2965 6.51653L52.134 8.144L50.9715 9.77147C50.9578 9.76165 50.9428 9.74918 50.9278 9.73421C50.9128 9.71925 50.9003 9.70421 50.8905 9.69047L52.518 8.528ZM52.134 8.144L53.4356 6.62548C53.1228 6.35738 52.7626 6.13572 52.3563 5.98334L51.654 7.856L50.9518 9.72866C50.8868 9.70428 50.8465 9.67462 50.8324 9.66251L52.134 8.144ZM51.654 7.856L52.4998 6.04363C51.8328 5.73237 51.1142 5.632 50.438 5.632V7.632V9.632C50.7432 9.632 50.8352 9.68096 50.8082 9.66837L51.654 7.856ZM50.438 7.632V5.632H49.574V7.632V9.632H50.438V7.632ZM49.574 7.632V5.632H48.71V7.632V9.632H49.574V7.632ZM48.71 7.632V5.632C48.0596 5.632 47.4856 5.89996 47.0718 6.31377L48.486 7.728L49.9002 9.14222C49.7728 9.26963 49.5996 9.39924 49.3778 9.49429C49.1537 9.59033 48.9243 9.632 48.71 9.632V7.632ZM48.486 7.728L47.3766 6.06391C46.5564 6.61074 46.39 7.45907 46.39 7.952H48.39H50.39C50.39 8.08881 50.3707 8.32743 50.2523 8.60383C50.1245 8.90207 49.9047 9.18587 49.5954 9.39209L48.486 7.728ZM73.981 6.48L75.7699 5.58557L75.7489 5.54367L75.726 5.50279L73.981 6.48ZM74.653 8.272L76.6086 7.85294L76.6015 7.81981L76.5933 7.78693L74.653 8.272ZM74.813 9.232L72.8284 9.48007L72.8295 9.4882L72.8305 9.49633L74.813 9.232ZM74.813 20.208L76.7955 20.4723L76.7965 20.4642L76.7976 20.4561L74.813 20.208ZM74.653 21.168L76.5855 21.6833L76.6018 21.6222L76.6142 21.5602L74.653 21.168ZM73.981 22.928L75.7419 23.8762L75.7488 23.8635L75.7554 23.8507L73.981 22.928ZM72.893 24.4L71.4788 22.9858L71.4788 22.9858L72.893 24.4ZM71.421 25.52L72.3692 27.2809L72.3838 27.2731L72.3982 27.265L71.421 25.52ZM70.557 25.936L71.2297 27.8195L71.288 27.7987L71.3448 27.7743L70.557 25.936ZM69.629 26.192L69.2368 24.2308L69.1901 24.2402L69.1439 24.2517L69.629 26.192ZM68.573 26.384L68.3393 24.3977L68.3321 24.3985L68.3249 24.3994L68.573 26.384ZM65.373 26.192L65.8311 24.2452L65.7983 24.2374L65.7652 24.2308L65.373 26.192ZM64.445 25.936L63.6572 27.7743L63.714 27.7987L63.7723 27.8195L64.445 25.936ZM63.549 25.52L62.5008 27.2233L62.5758 27.2695L62.6546 27.3089L63.549 25.52ZM62.781 25.008L61.5145 26.5559L61.5586 26.592L61.6047 26.6255L62.781 25.008ZM62.077 24.4L60.5971 25.7453L60.6612 25.8158L60.7317 25.8799L62.077 24.4ZM61.021 22.928L62.7796 21.9754L62.7533 21.9269L62.7243 21.8798L61.021 22.928ZM60.605 22.064L58.682 22.6134L58.6997 22.6757L58.7215 22.7367L60.605 22.064ZM60.349 21.168L58.4087 21.6531L58.4168 21.6854L58.426 21.7174L60.349 21.168ZM60.349 8.272L58.4165 7.75666L58.413 7.77008L60.349 8.272ZM60.605 7.376L58.7215 6.70333L58.7065 6.74526L58.6934 6.78783L60.605 7.376ZM61.021 6.48L62.7575 7.47228L62.7688 7.45255L62.7796 7.43257L61.021 6.48ZM62.077 5.008L60.7317 3.52812L60.6612 3.59218L60.5971 3.66265L62.077 5.008ZM62.781 4.432L63.9573 6.04947L64.0034 6.01598L64.0475 5.97991L62.781 4.432ZM63.549 3.92L64.4972 5.68094L64.5118 5.67309L64.5262 5.66501L63.549 3.92ZM65.373 3.216L64.9149 1.26917L64.9014 1.27235L64.8879 1.27571L65.373 3.216ZM68.573 3.024L68.3249 5.00855L68.3321 5.00945L68.3393 5.0103L68.573 3.024ZM69.629 3.216L69.1439 5.15628L69.1439 5.15629L69.629 3.216ZM71.421 3.92L70.4133 5.64756L70.4689 5.68003L70.5266 5.70885L71.421 3.92ZM72.221 4.432L70.9545 5.97991L70.9986 6.01598L71.0447 6.04947L72.221 4.432ZM72.893 5.008L74.3413 3.62869L74.3245 3.61103L74.3072 3.59379L72.893 5.008ZM64.957 20.304L66.9182 19.9118L66.8937 19.7897L66.8544 19.6715L64.957 20.304ZM65.149 20.88L63.3601 21.7744L63.4303 21.9148L63.5215 22.0425L65.149 20.88ZM65.469 21.36L63.773 22.42L63.83 22.5111L63.8964 22.5956L65.469 21.36ZM66.301 22L67.1468 20.1876L67.0959 20.1639L67.0438 20.143L66.301 22ZM68.701 22L67.9582 20.143L67.9061 20.1639L67.8552 20.1876L68.701 22ZM69.533 21.36L71.1056 22.5956L71.172 22.5111L71.229 22.42L69.533 21.36ZM69.821 20.88L68.125 19.82L68.1041 19.8535L68.0845 19.8877L69.821 20.88ZM70.045 20.304L68.1476 19.6715L68.1083 19.7897L68.0838 19.9118L70.045 20.304ZM70.045 9.104L68.1047 9.58907L68.116 9.63417L68.1293 9.6787L70.045 9.104ZM69.533 8.048L71.1669 6.89463L71.1373 6.85271L71.1056 6.81236L69.533 8.048ZM68.701 7.408L67.8552 9.22037L67.9061 9.24411L67.9582 9.26495L68.701 7.408ZM66.301 7.408L67.0438 9.26495L67.0959 9.24411L67.1468 9.22037L66.301 7.408ZM65.469 8.048L63.8964 6.81236L63.8647 6.85271L63.8351 6.89463L65.469 8.048ZM64.957 9.104L66.8727 9.6787L66.886 9.63417L66.8973 9.58907L64.957 9.104ZM73.981 6.48L72.1921 7.37443C72.431 7.85215 72.6016 8.31267 72.7127 8.75707L74.653 8.272L76.5933 7.78693C76.4057 7.03666 76.1283 6.30251 75.7699 5.58557L73.981 6.48ZM74.653 8.272L72.6974 8.69106C72.7479 8.92665 72.7921 9.1891 72.8284 9.48007L74.813 9.232L76.7976 8.98393C76.7486 8.59223 76.6861 8.21468 76.6086 7.85294L74.653 8.272ZM74.813 9.232L72.8305 9.49633C72.8602 9.71878 72.877 9.97113 72.877 10.256H74.877H76.877C76.877 9.81554 76.8511 9.38522 76.7955 8.96767L74.813 9.232ZM74.877 10.256H72.877V14.704H74.877H76.877V10.256H74.877ZM74.877 14.704H72.877V19.152H74.877H76.877V14.704H74.877ZM74.877 19.152H72.877C72.877 19.4362 72.8603 19.7052 72.8284 19.9599L74.813 20.208L76.7976 20.4561C76.851 20.0281 76.877 19.5931 76.877 19.152H74.877ZM74.813 20.208L72.8305 19.9437C72.7937 20.2204 72.7475 20.4977 72.6918 20.7758L74.653 21.168L76.6142 21.5602C76.6865 21.1983 76.747 20.8356 76.7955 20.4723L74.813 20.208ZM74.653 21.168L72.7205 20.6527C72.5837 21.1657 72.4101 21.6139 72.2066 22.0053L73.981 22.928L75.7554 23.8507C76.1066 23.1754 76.3809 22.4503 76.5855 21.6833L74.653 21.168ZM73.981 22.928L72.2201 21.9798C72.0096 22.3707 71.7619 22.7027 71.4788 22.9858L72.893 24.4L74.3072 25.8142C74.8775 25.2439 75.3551 24.5947 75.7419 23.8762L73.981 22.928ZM72.893 24.4L71.4788 22.9858C71.1558 23.3087 70.8112 23.5692 70.4438 23.775L71.421 25.52L72.3982 27.265C73.0975 26.8734 73.7342 26.3873 74.3072 25.8142L72.893 24.4ZM71.421 25.52L70.4728 23.7591C70.2494 23.8794 70.015 23.9924 69.7692 24.0977L70.557 25.936L71.3448 27.7743C71.6964 27.6236 72.038 27.4593 72.3692 27.2809L71.421 25.52ZM70.557 25.936L69.8843 24.0525C69.6797 24.1256 69.4643 24.1853 69.2368 24.2308L69.629 26.192L70.0212 28.1532C70.4337 28.0707 70.8369 27.9597 71.2297 27.8195L70.557 25.936ZM69.629 26.192L69.1439 24.2517C68.8884 24.3156 68.6205 24.3646 68.3393 24.3977L68.573 26.384L68.8067 28.3703C69.2509 28.318 69.687 28.2391 70.1141 28.1323L69.629 26.192ZM68.573 26.384L68.3249 24.3994C68.0747 24.4307 67.7955 24.448 67.485 24.448V26.448V28.448C67.9425 28.448 68.3886 28.4226 68.8211 28.3686L68.573 26.384ZM67.485 26.448V24.448C66.9699 24.448 66.4198 24.3837 65.8311 24.2452L65.373 26.192L64.9149 28.1388C65.7768 28.3416 66.6348 28.448 67.485 28.448V26.448ZM65.373 26.192L65.7652 24.2308C65.5377 24.1853 65.3223 24.1256 65.1177 24.0525L64.445 25.936L63.7723 27.8195C64.1651 27.9597 64.5683 28.0707 64.9808 28.1532L65.373 26.192ZM64.445 25.936L65.2328 24.0977C64.9712 23.9856 64.708 23.8634 64.4434 23.7311L63.549 25.52L62.6546 27.3089C62.9873 27.4752 63.3215 27.6304 63.6572 27.7743L64.445 25.936ZM63.549 25.52L64.5972 23.8167C64.3585 23.6698 64.1458 23.5276 63.9573 23.3905L62.781 25.008L61.6047 26.6255C61.8856 26.8298 62.1849 27.0289 62.5008 27.2233L63.549 25.52ZM62.781 25.008L64.0475 23.4601C63.8409 23.2911 63.6325 23.1112 63.4223 22.9201L62.077 24.4L60.7317 25.8799C60.9908 26.1155 61.2518 26.3409 61.5145 26.5559L62.781 25.008ZM62.077 24.4L63.5569 23.0547C63.229 22.694 62.9737 22.3338 62.7796 21.9754L61.021 22.928L59.2624 23.8806C59.623 24.5462 60.0716 25.1673 60.5971 25.7453L62.077 24.4ZM61.021 22.928L62.7243 21.8798C62.6247 21.7179 62.5471 21.5554 62.4885 21.3913L60.605 22.064L58.7215 22.7367C58.8762 23.1699 59.076 23.5835 59.3177 23.9762L61.021 22.928ZM60.605 22.064L62.528 21.5146C62.4427 21.2159 62.3574 20.9172 62.272 20.6186L60.349 21.168L58.426 21.7174C58.5113 22.0161 58.5966 22.3148 58.682 22.6134L60.605 22.064ZM60.349 21.168L62.2893 20.6829C62.187 20.2736 62.125 19.7685 62.125 19.152H60.125H58.125C58.125 20.0289 58.2124 20.8677 58.4087 21.6531L60.349 21.168ZM60.125 19.152H62.125V14.704H60.125H58.125V19.152H60.125ZM60.125 14.704H62.125V10.256H60.125H58.125V14.704H60.125ZM60.125 10.256H62.125C62.125 9.63775 62.1873 9.15062 62.285 8.77392L60.349 8.272L58.413 7.77008C58.212 8.54538 58.125 9.38091 58.125 10.256H60.125ZM60.349 8.272L62.2815 8.78733C62.3612 8.48841 62.4396 8.21427 62.5166 7.96417L60.605 7.376L58.6934 6.78783C58.5997 7.09239 58.5075 7.41559 58.4165 7.75667L60.349 8.272ZM60.605 7.376L62.4885 8.04867C62.5525 7.86951 62.6403 7.67744 62.7575 7.47228L61.021 6.48L59.2845 5.48772C59.0604 5.8799 58.8709 6.28516 58.7215 6.70333L60.605 7.376ZM61.021 6.48L62.7796 7.43257C62.9737 7.07422 63.229 6.71398 63.5569 6.35334L62.077 5.008L60.5971 3.66265C60.0716 4.24069 59.623 4.86178 59.2624 5.52743L61.021 6.48ZM62.077 5.008L63.4223 6.48788C63.6081 6.319 63.7866 6.17366 63.9573 6.04947L62.781 4.432L61.6047 2.81453C61.3061 3.03168 61.0152 3.27034 60.7317 3.52812L62.077 5.008ZM62.781 4.432L64.0475 5.97991C64.1793 5.87202 64.3282 5.77196 64.4972 5.68094L63.549 3.92L62.6008 2.15906C62.2152 2.36671 61.852 2.60798 61.5145 2.88408L62.781 4.432ZM63.549 3.92L64.5262 5.66501C64.8836 5.46486 65.322 5.2903 65.8581 5.15629L65.373 3.216L64.8879 1.27571C64.0586 1.48303 63.281 1.7778 62.5718 2.17499L63.549 3.92ZM65.373 3.216L65.8311 5.16283C66.4198 5.0243 66.9699 4.96 67.485 4.96V2.96V0.959999C66.6348 0.959999 65.7768 1.06636 64.9149 1.26917L65.373 3.216ZM67.485 2.96V4.96C67.7955 4.96 68.0747 4.97728 68.3249 5.00855L68.573 3.024L68.8211 1.03944C68.3886 0.985387 67.9425 0.959999 67.485 0.959999V2.96ZM68.573 3.024L68.3393 5.0103C68.6205 5.04338 68.8884 5.0924 69.1439 5.15628L69.629 3.216L70.1141 1.27571C69.687 1.16893 69.2509 1.08995 68.8067 1.0377L68.573 3.024ZM69.629 3.216L69.1439 5.15629C69.6764 5.28941 70.0917 5.45998 70.4133 5.64756L71.421 3.92L72.4287 2.19244C71.7263 1.78268 70.9469 1.48392 70.1141 1.27571L69.629 3.216ZM71.421 3.92L70.5266 5.70885C70.7059 5.79851 70.8455 5.89068 70.9545 5.97991L72.221 4.432L73.4875 2.88408C73.1272 2.58932 72.7334 2.34015 72.3154 2.13115L71.421 3.92ZM72.221 4.432L71.0447 6.04947C71.1916 6.15632 71.3364 6.27982 71.4788 6.42221L72.893 5.008L74.3072 3.59379C74.0229 3.30951 73.7198 3.04901 73.3973 2.81453L72.221 4.432ZM72.893 5.008L71.4447 6.38731C71.7575 6.71569 72.02 7.07156 72.236 7.45721L73.981 6.48L75.726 5.50279C75.3446 4.82177 74.8819 4.19631 74.3413 3.62869L72.893 5.008ZM64.765 10.448H62.765V14.704H64.765H66.765V10.448H64.765ZM64.765 14.704H62.765V18.96H64.765H66.765V14.704H64.765ZM64.765 18.96H62.765C62.765 19.6327 62.8484 20.3027 63.0596 20.9365L64.957 20.304L66.8544 19.6715C66.8096 19.5373 66.765 19.3113 66.765 18.96H64.765ZM64.957 20.304L62.9958 20.6962C63.0686 21.06 63.1851 21.4243 63.3601 21.7744L65.149 20.88L66.9379 19.9856C66.9422 19.9943 66.9307 19.9747 66.9182 19.9118L64.957 20.304ZM65.149 20.88L63.5215 22.0425C63.6022 22.1553 63.6861 22.2809 63.773 22.42L65.469 21.36L67.165 20.3C67.0386 20.0978 66.9092 19.9033 66.7765 19.7175L65.149 20.88ZM65.469 21.36L63.8964 22.5956C64.3255 23.1418 64.8792 23.5854 65.5582 23.857L66.301 22L67.0438 20.143C67.0495 20.1453 67.0555 20.1482 67.0613 20.1515C67.067 20.1548 67.0708 20.1575 67.0724 20.1588C67.074 20.1599 67.0722 20.1587 67.0672 20.1538C67.0622 20.1488 67.0535 20.1394 67.0416 20.1244L65.469 21.36ZM66.301 22L65.4552 23.8124C66.1121 24.1189 66.815 24.224 67.485 24.224V22.224V20.224C67.2163 20.224 67.1299 20.1797 67.1468 20.1876L66.301 22ZM67.485 22.224V24.224C68.1612 24.224 68.8798 24.1236 69.5468 23.8124L68.701 22L67.8552 20.1876C67.8822 20.175 67.7902 20.224 67.485 20.224V22.224ZM68.701 22L69.4438 23.857C70.1228 23.5854 70.6765 23.1418 71.1056 22.5956L69.533 21.36L67.9604 20.1244C67.9485 20.1394 67.9398 20.1488 67.9348 20.1538C67.9298 20.1587 67.928 20.1599 67.9296 20.1588C67.9312 20.1575 67.935 20.1548 67.9407 20.1515C67.9465 20.1482 67.9525 20.1453 67.9582 20.143L68.701 22ZM69.533 21.36L71.229 22.42C71.3473 22.2307 71.4571 22.0479 71.5575 21.8723L69.821 20.88L68.0845 19.8877C68.0142 20.0108 67.932 20.148 67.837 20.3L69.533 21.36ZM69.821 20.88L71.517 21.94C71.7616 21.5486 71.92 21.1271 72.0062 20.6962L70.045 20.304L68.0838 19.9118C68.0839 19.9113 68.0861 19.9008 68.093 19.8831C68.1 19.8651 68.1104 19.8433 68.125 19.82L69.821 20.88ZM70.045 20.304L71.9424 20.9365C72.1536 20.3027 72.237 19.6327 72.237 18.96H70.237H68.237C68.237 19.3113 68.1924 19.5373 68.1476 19.6715L70.045 20.304ZM70.237 18.96H72.237V14.704H70.237H68.237V18.96H70.237ZM70.237 14.704H72.237V10.448H70.237H68.237V14.704H70.237ZM70.237 10.448H72.237C72.237 9.79448 72.1475 9.15217 71.9607 8.5293L70.045 9.104L68.1293 9.6787C68.1985 9.90916 68.237 10.1629 68.237 10.448H70.237ZM70.045 9.104L71.9853 8.61893C71.8266 7.98418 71.5297 7.40851 71.1669 6.89463L69.533 8.048L67.8991 9.20137C68.0483 9.41282 68.0927 9.54115 68.1047 9.58907L70.045 9.104ZM69.533 8.048L71.1056 6.81236C70.6765 6.26622 70.1228 5.82265 69.4438 5.55104L68.701 7.408L67.9582 9.26495C67.9525 9.26268 67.9465 9.25978 67.9407 9.25649C67.935 9.2532 67.9312 9.25049 67.9296 9.24925C67.928 9.24805 67.9298 9.24926 67.9348 9.25421C67.9398 9.25922 67.9485 9.26855 67.9604 9.28364L69.533 8.048ZM68.701 7.408L69.5468 5.59563C68.8798 5.28437 68.1612 5.184 67.485 5.184V7.184V9.184C67.7902 9.184 67.8822 9.23296 67.8552 9.22037L68.701 7.408ZM67.485 7.184V5.184C66.815 5.184 66.1121 5.28908 65.4552 5.59563L66.301 7.408L67.1468 9.22037C67.1299 9.22825 67.2163 9.184 67.485 9.184V7.184ZM66.301 7.408L65.5582 5.55104C64.8792 5.82265 64.3255 6.26622 63.8964 6.81236L65.469 8.048L67.0416 9.28364C67.0535 9.26855 67.0622 9.25922 67.0672 9.25421C67.0722 9.24926 67.074 9.24805 67.0724 9.24925C67.0708 9.25049 67.067 9.2532 67.0613 9.25649C67.0555 9.25978 67.0495 9.26268 67.0438 9.26495L66.301 7.408ZM65.469 8.048L63.8351 6.89463C63.4723 7.40851 63.1754 7.98418 63.0167 8.61893L64.957 9.104L66.8973 9.58907C66.9093 9.54115 66.9537 9.41282 67.1029 9.20136L65.469 8.048ZM64.957 9.104L63.0413 8.5293C62.8545 9.15217 62.765 9.79448 62.765 10.448H64.765H66.765C66.765 10.1629 66.8035 9.90916 66.8727 9.6787L64.957 9.104ZM91.269 13.232L92.6832 11.8178L92.6832 11.8178L91.269 13.232ZM91.813 20.208L93.7955 20.4723L93.7965 20.4642L93.7976 20.4561L91.813 20.208ZM91.653 21.168L93.5855 21.6833L93.6018 21.6222L93.6142 21.5602L91.653 21.168ZM90.981 22.928L92.7419 23.8762L92.7488 23.8635L92.7554 23.8507L90.981 22.928ZM89.893 24.4L88.4788 22.9858L88.4788 22.9858L89.893 24.4ZM88.421 25.52L89.3692 27.2809L89.3838 27.2731L89.3982 27.265L88.421 25.52ZM87.557 25.936L88.2297 27.8195L88.288 27.7987L88.3448 27.7743L87.557 25.936ZM86.629 26.192L86.2368 24.2308L86.1901 24.2402L86.1439 24.2517L86.629 26.192ZM85.573 26.384L85.3393 24.3977L85.3321 24.3985L85.3249 24.3994L85.573 26.384ZM82.373 26.192L82.8311 24.2452L82.7983 24.2374L82.7652 24.2308L82.373 26.192ZM81.445 25.936L80.6572 27.7743L80.714 27.7987L80.7723 27.8195L81.445 25.936ZM80.549 25.52L79.5008 27.2233L79.5758 27.2695L79.6546 27.3089L80.549 25.52ZM79.781 25.008L78.5145 26.5559L78.5586 26.592L78.6047 26.6255L79.781 25.008ZM79.077 24.4L77.5971 25.7453L77.6612 25.8158L77.7317 25.8799L79.077 24.4ZM78.021 22.928L79.7796 21.9754L79.7533 21.9269L79.7243 21.8798L78.021 22.928ZM77.605 22.064L75.682 22.6134L75.6997 22.6757L75.7215 22.7367L77.605 22.064ZM77.349 21.168L75.4087 21.6531L75.4168 21.6854L75.426 21.7174L77.349 21.168ZM77.349 8.272L75.4165 7.75666L75.413 7.77008L77.349 8.272ZM77.605 7.376L75.7215 6.70333L75.7065 6.74526L75.6934 6.78783L77.605 7.376ZM78.021 6.48L79.7575 7.47228L79.7688 7.45255L79.7796 7.43257L78.021 6.48ZM79.077 5.008L77.7317 3.52812L77.6612 3.59218L77.5971 3.66265L79.077 5.008ZM79.781 4.432L80.9573 6.04947L81.0034 6.01598L81.0475 5.97991L79.781 4.432ZM80.549 3.92L81.4972 5.68094L81.5118 5.67309L81.5262 5.66501L80.549 3.92ZM82.373 3.216L81.9149 1.26917L81.9014 1.27235L81.8879 1.27571L82.373 3.216ZM85.573 3.024L85.3249 5.00855L85.3321 5.00945L85.3393 5.0103L85.573 3.024ZM86.629 3.216L86.1439 5.15628L86.1439 5.15629L86.629 3.216ZM88.421 3.92L87.4133 5.64756L87.4526 5.67052L87.493 5.69166L88.421 3.92ZM89.573 4.72L88.2084 6.18211L88.2318 6.20401L88.256 6.22515L89.573 4.72ZM90.501 5.712L92.0933 4.50183L92.0516 4.44691L92.0062 4.39499L90.501 5.712ZM91.045 7.408L93.0399 7.55049L93.0399 7.55049L91.045 7.408ZM90.245 8.88L91.4679 10.4626L91.4776 10.455L90.245 8.88ZM88.517 9.328L88.2527 11.3105L88.2914 11.3156L88.3303 11.3193L88.517 9.328ZM87.589 9.072L86.6946 10.8609L86.7471 10.8871L86.8012 10.9103L87.589 9.072ZM86.821 8.432L88.4062 7.21258L88.3824 7.18163L88.3574 7.15163L86.821 8.432ZM85.829 7.504L86.9621 5.85591L86.88 5.79953L86.7928 5.75157L85.829 7.504ZM82.629 7.92L84.0432 9.33421L84.0432 9.33421L82.629 7.92ZM82.021 8.752L83.7575 9.74428L83.772 9.71893L83.7857 9.69318L82.021 8.752ZM81.957 20.304L83.9182 19.9118L83.8937 19.7897L83.8544 19.6715L81.957 20.304ZM82.149 20.88L80.3601 21.7744L80.4303 21.9148L80.5215 22.0425L82.149 20.88ZM82.469 21.36L80.773 22.42L80.83 22.5111L80.8964 22.5956L82.469 21.36ZM83.301 22L84.1468 20.1876L84.0959 20.1639L84.0438 20.143L83.301 22ZM85.701 22L84.9582 20.143L84.9061 20.1639L84.8552 20.1876L85.701 22ZM86.533 21.36L88.1056 22.5956L88.172 22.5111L88.229 22.42L86.533 21.36ZM86.821 20.88L85.125 19.82L85.1041 19.8535L85.0845 19.8877L86.821 20.88ZM87.045 20.304L85.1476 19.6715L85.1083 19.7897L85.0838 19.9118L87.045 20.304ZM87.237 16.784H89.237V14.784H87.237V16.784ZM84.581 16.176L86.0715 14.8424L86.0345 14.801L85.9952 14.7618L84.581 16.176ZM84.581 13.232L85.9952 14.6462L86.0345 14.607L86.0715 14.5656L84.581 13.232ZM89.797 12.624V14.624C89.8233 14.624 89.8366 14.6263 89.8397 14.6268C89.8424 14.6274 89.8394 14.627 89.8335 14.6245C89.8275 14.6221 89.8247 14.62 89.826 14.621C89.8276 14.6221 89.8375 14.6289 89.8548 14.6462L91.269 13.232L92.6832 11.8178C91.9008 11.0353 90.9005 10.624 89.797 10.624V12.624ZM91.269 13.232L89.8548 14.6462C89.8721 14.6635 89.8789 14.6734 89.88 14.675C89.881 14.6763 89.8789 14.6735 89.8765 14.6675C89.874 14.6616 89.8736 14.6586 89.8742 14.6613C89.8747 14.6644 89.877 14.6777 89.877 14.704H91.877H93.877C93.877 13.6005 93.4657 12.6002 92.6832 11.8178L91.269 13.232ZM91.877 14.704H89.877V16.944H91.877H93.877V14.704H91.877ZM91.877 16.944H89.877V19.152H91.877H93.877V16.944H91.877ZM91.877 19.152H89.877C89.877 19.4362 89.8603 19.7052 89.8284 19.9599L91.813 20.208L93.7976 20.4561C93.851 20.0281 93.877 19.5931 93.877 19.152H91.877ZM91.813 20.208L89.8305 19.9437C89.7937 20.2204 89.7475 20.4977 89.6918 20.7758L91.653 21.168L93.6142 21.5602C93.6865 21.1983 93.747 20.8356 93.7955 20.4723L91.813 20.208ZM91.653 21.168L89.7205 20.6527C89.5837 21.1657 89.4101 21.6139 89.2066 22.0053L90.981 22.928L92.7554 23.8507C93.1066 23.1754 93.3809 22.4503 93.5855 21.6833L91.653 21.168ZM90.981 22.928L89.2201 21.9798C89.0096 22.3707 88.7619 22.7027 88.4788 22.9858L89.893 24.4L91.3072 25.8142C91.8775 25.2439 92.3551 24.5947 92.7419 23.8762L90.981 22.928ZM89.893 24.4L88.4788 22.9858C88.1558 23.3087 87.8112 23.5692 87.4438 23.775L88.421 25.52L89.3982 27.265C90.0975 26.8734 90.7342 26.3873 91.3072 25.8142L89.893 24.4ZM88.421 25.52L87.4728 23.7591C87.2494 23.8794 87.015 23.9924 86.7692 24.0977L87.557 25.936L88.3448 27.7743C88.6964 27.6236 89.038 27.4593 89.3692 27.2809L88.421 25.52ZM87.557 25.936L86.8843 24.0525C86.6797 24.1256 86.4643 24.1853 86.2368 24.2308L86.629 26.192L87.0212 28.1532C87.4337 28.0707 87.8369 27.9597 88.2297 27.8195L87.557 25.936ZM86.629 26.192L86.1439 24.2517C85.8884 24.3156 85.6205 24.3646 85.3393 24.3977L85.573 26.384L85.8067 28.3703C86.2509 28.318 86.687 28.2391 87.1141 28.1323L86.629 26.192ZM85.573 26.384L85.3249 24.3994C85.0747 24.4307 84.7955 24.448 84.485 24.448V26.448V28.448C84.9425 28.448 85.3886 28.4226 85.8211 28.3686L85.573 26.384ZM84.485 26.448V24.448C83.9699 24.448 83.4198 24.3837 82.8311 24.2452L82.373 26.192L81.9149 28.1388C82.7768 28.3416 83.6348 28.448 84.485 28.448V26.448ZM82.373 26.192L82.7652 24.2308C82.5377 24.1853 82.3223 24.1256 82.1177 24.0525L81.445 25.936L80.7723 27.8195C81.1651 27.9597 81.5683 28.0707 81.9808 28.1532L82.373 26.192ZM81.445 25.936L82.2328 24.0977C81.9712 23.9856 81.708 23.8634 81.4434 23.7311L80.549 25.52L79.6546 27.3089C79.9873 27.4752 80.3215 27.6304 80.6572 27.7743L81.445 25.936ZM80.549 25.52L81.5972 23.8167C81.3585 23.6698 81.1458 23.5276 80.9573 23.3905L79.781 25.008L78.6047 26.6255C78.8856 26.8298 79.1849 27.0289 79.5008 27.2233L80.549 25.52ZM79.781 25.008L81.0475 23.4601C80.8409 23.2911 80.6325 23.1112 80.4223 22.9201L79.077 24.4L77.7317 25.8799C77.9908 26.1155 78.2518 26.3409 78.5145 26.5559L79.781 25.008ZM79.077 24.4L80.5569 23.0547C80.229 22.694 79.9737 22.3338 79.7796 21.9754L78.021 22.928L76.2624 23.8806C76.623 24.5462 77.0716 25.1673 77.5971 25.7453L79.077 24.4ZM78.021 22.928L79.7243 21.8798C79.6247 21.7179 79.5471 21.5554 79.4885 21.3913L77.605 22.064L75.7215 22.7367C75.8762 23.1699 76.076 23.5835 76.3177 23.9762L78.021 22.928ZM77.605 22.064L79.528 21.5146C79.4427 21.2159 79.3574 20.9172 79.272 20.6186L77.349 21.168L75.426 21.7174C75.5113 22.0161 75.5966 22.3148 75.682 22.6134L77.605 22.064ZM77.349 21.168L79.2893 20.6829C79.187 20.2736 79.125 19.7685 79.125 19.152H77.125H75.125C75.125 20.0289 75.2124 20.8677 75.4087 21.6531L77.349 21.168ZM77.125 19.152H79.125V14.704H77.125H75.125V19.152H77.125ZM77.125 14.704H79.125V10.256H77.125H75.125V14.704H77.125ZM77.125 10.256H79.125C79.125 9.63775 79.1873 9.15062 79.285 8.77392L77.349 8.272L75.413 7.77008C75.212 8.54538 75.125 9.38091 75.125 10.256H77.125ZM77.349 8.272L79.2815 8.78733C79.3612 8.48841 79.4396 8.21427 79.5166 7.96417L77.605 7.376L75.6934 6.78783C75.5997 7.09239 75.5075 7.41559 75.4165 7.75667L77.349 8.272ZM77.605 7.376L79.4885 8.04867C79.5525 7.86951 79.6403 7.67744 79.7575 7.47228L78.021 6.48L76.2845 5.48772C76.0604 5.8799 75.8709 6.28516 75.7215 6.70333L77.605 7.376ZM78.021 6.48L79.7796 7.43257C79.9737 7.07422 80.229 6.71398 80.5569 6.35334L79.077 5.008L77.5971 3.66265C77.0716 4.24069 76.623 4.86178 76.2624 5.52743L78.021 6.48ZM79.077 5.008L80.4223 6.48788C80.6081 6.319 80.7866 6.17366 80.9573 6.04947L79.781 4.432L78.6047 2.81453C78.3061 3.03168 78.0152 3.27034 77.7317 3.52812L79.077 5.008ZM79.781 4.432L81.0475 5.97991C81.1793 5.87202 81.3282 5.77196 81.4972 5.68094L80.549 3.92L79.6008 2.15906C79.2152 2.36671 78.852 2.60798 78.5145 2.88408L79.781 4.432ZM80.549 3.92L81.5262 5.66501C81.8836 5.46486 82.322 5.2903 82.8581 5.15629L82.373 3.216L81.8879 1.27571C81.0586 1.48303 80.281 1.7778 79.5718 2.17499L80.549 3.92ZM82.373 3.216L82.8311 5.16283C83.4198 5.0243 83.9699 4.96 84.485 4.96V2.96V0.959999C83.6348 0.959999 82.7768 1.06636 81.9149 1.26917L82.373 3.216ZM84.485 2.96V4.96C84.7955 4.96 85.0747 4.97728 85.3249 5.00855L85.573 3.024L85.8211 1.03944C85.3886 0.985387 84.9425 0.959999 84.485 0.959999V2.96ZM85.573 3.024L85.3393 5.0103C85.6205 5.04338 85.8884 5.0924 86.1439 5.15628L86.629 3.216L87.1141 1.27571C86.687 1.16893 86.2509 1.08995 85.8067 1.0377L85.573 3.024ZM86.629 3.216L86.1439 5.15629C86.6764 5.28941 87.0917 5.45998 87.4133 5.64756L88.421 3.92L89.4287 2.19244C88.7263 1.78268 87.9469 1.48392 87.1141 1.27571L86.629 3.216ZM88.421 3.92L87.493 5.69166C87.8063 5.85576 88.0378 6.02295 88.2084 6.18211L89.573 4.72L90.9376 3.25789C90.4682 2.81972 89.9317 2.45357 89.349 2.14834L88.421 3.92ZM89.573 4.72L88.256 6.22515C88.3598 6.31602 88.457 6.41316 88.5478 6.51701L90.053 5.2L91.5582 3.88299C91.3504 3.6455 91.1275 3.42265 90.89 3.21484L89.573 4.72ZM90.053 5.2L88.5478 6.51701C88.5569 6.52734 88.7628 6.76267 88.7718 6.77301C88.8125 6.81952 88.8431 6.85449 88.8838 6.90101C88.9245 6.94752 88.9551 6.98249 88.9958 7.02901L90.501 5.712L92.0062 4.39499C91.9971 4.38466 91.7912 4.14933 91.7822 4.13899C91.7415 4.09248 91.7109 4.05751 91.6702 4.01099C91.6295 3.96448 91.5989 3.92951 91.5582 3.88299L90.053 5.2ZM90.501 5.712L88.9087 6.92217C89.0573 7.11774 89.054 7.21132 89.0501 7.26551L91.045 7.408L93.0399 7.55049C93.1214 6.41002 92.7554 5.37292 92.0933 4.50183L90.501 5.712ZM91.045 7.408L89.0501 7.2655C89.0486 7.28594 89.0462 7.29257 89.0472 7.28905C89.0484 7.28512 89.0512 7.27743 89.0558 7.26897C89.0603 7.26065 89.0628 7.25847 89.059 7.26284C89.0549 7.26762 89.0413 7.28236 89.0124 7.30499L90.245 8.88L91.4776 10.455C92.393 9.73864 92.9552 8.73693 93.0399 7.55049L91.045 7.408ZM90.245 8.88L89.0221 7.29743C89.0021 7.31288 88.9862 7.32097 88.9591 7.32801C88.927 7.33631 88.8486 7.35032 88.7037 7.33673L88.517 9.328L88.3303 11.3193C89.4333 11.4227 90.5351 11.1834 91.4679 10.4626L90.245 8.88ZM88.517 9.328L88.7813 7.34554C88.6428 7.32707 88.5095 7.29055 88.3768 7.23371L87.589 9.072L86.8012 10.9103C87.2659 11.1094 87.7512 11.2436 88.2527 11.3105L88.517 9.328ZM87.589 9.072L88.4834 7.28314C88.4681 7.27547 88.4443 7.26211 88.4062 7.21258L86.821 8.432L85.2358 9.65142C85.6243 10.1566 86.1126 10.5699 86.6946 10.8609L87.589 9.072ZM86.821 8.432L88.3574 7.15163C87.9437 6.65514 87.4813 6.2129 86.9621 5.85591L85.829 7.504L84.6959 9.15208C84.8594 9.26443 85.0583 9.44086 85.2846 9.71237L86.821 8.432ZM85.829 7.504L86.7928 5.75157C86.0824 5.36082 85.3042 5.152 84.485 5.152V7.152V9.152C84.6044 9.152 84.7223 9.17784 84.8652 9.25643L85.829 7.504ZM84.485 7.152V5.152C83.2303 5.152 82.1026 5.61798 81.2148 6.50579L82.629 7.92L84.0432 9.33421C84.1794 9.19802 84.2891 9.152 84.485 9.152V7.152ZM82.629 7.92L81.2148 6.50579C80.8283 6.89228 80.5113 7.33276 80.2563 7.81082L82.021 8.752L83.7857 9.69318C83.8721 9.53124 83.9604 9.41705 84.0432 9.33421L82.629 7.92ZM82.021 8.752L80.2845 7.75972C79.9317 8.37717 79.765 9.0529 79.765 9.744H81.765H83.765C83.765 9.73189 83.7657 9.72489 83.766 9.72231C83.7663 9.71979 83.7664 9.72053 83.7656 9.72375C83.7647 9.72702 83.7634 9.73118 83.7616 9.7356C83.7598 9.74 83.7582 9.74301 83.7575 9.74428L82.021 8.752ZM81.765 9.744H79.765V14.352H81.765H83.765V9.744H81.765ZM81.765 14.352H79.765V18.96H81.765H83.765V14.352H81.765ZM81.765 18.96H79.765C79.765 19.6327 79.8484 20.3027 80.0596 20.9365L81.957 20.304L83.8544 19.6715C83.8096 19.5373 83.765 19.3113 83.765 18.96H81.765ZM81.957 20.304L79.9958 20.6962C80.0686 21.06 80.1851 21.4243 80.3601 21.7744L82.149 20.88L83.9379 19.9856C83.9422 19.9943 83.9307 19.9747 83.9182 19.9118L81.957 20.304ZM82.149 20.88L80.5215 22.0425C80.6022 22.1553 80.6861 22.2809 80.773 22.42L82.469 21.36L84.165 20.3C84.0386 20.0978 83.9092 19.9033 83.7765 19.7175L82.149 20.88ZM82.469 21.36L80.8964 22.5956C81.3255 23.1418 81.8792 23.5854 82.5582 23.857L83.301 22L84.0438 20.143C84.0495 20.1453 84.0555 20.1482 84.0613 20.1515C84.067 20.1548 84.0708 20.1575 84.0724 20.1588C84.074 20.1599 84.0722 20.1587 84.0672 20.1538C84.0622 20.1488 84.0535 20.1394 84.0416 20.1244L82.469 21.36ZM83.301 22L82.4552 23.8124C83.1121 24.1189 83.815 24.224 84.485 24.224V22.224V20.224C84.2163 20.224 84.1299 20.1797 84.1468 20.1876L83.301 22ZM84.485 22.224V24.224C85.1612 24.224 85.8798 24.1236 86.5468 23.8124L85.701 22L84.8552 20.1876C84.8822 20.175 84.7902 20.224 84.485 20.224V22.224ZM85.701 22L86.4438 23.857C87.1228 23.5854 87.6765 23.1418 88.1056 22.5956L86.533 21.36L84.9604 20.1244C84.9485 20.1394 84.9398 20.1488 84.9348 20.1538C84.9298 20.1587 84.928 20.1599 84.9296 20.1588C84.9312 20.1575 84.935 20.1548 84.9407 20.1515C84.9465 20.1482 84.9525 20.1453 84.9582 20.143L85.701 22ZM86.533 21.36L88.229 22.42C88.3473 22.2307 88.4571 22.0479 88.5575 21.8723L86.821 20.88L85.0845 19.8877C85.0142 20.0108 84.932 20.148 84.837 20.3L86.533 21.36ZM86.821 20.88L88.517 21.94C88.7616 21.5486 88.92 21.1271 89.0062 20.6962L87.045 20.304L85.0838 19.9118C85.0839 19.9113 85.0861 19.9008 85.093 19.8831C85.1 19.8651 85.1104 19.8433 85.125 19.82L86.821 20.88ZM87.045 20.304L88.9424 20.9365C89.1536 20.3027 89.237 19.6327 89.237 18.96H87.237H85.237C85.237 19.3113 85.1924 19.5373 85.1476 19.6715L87.045 20.304ZM87.237 18.96H89.237V17.872H87.237H85.237V18.96H87.237ZM87.237 17.872H89.237V16.784H87.237H85.237V17.872H87.237ZM87.237 16.784V14.784H86.629V16.784V18.784H87.237V16.784ZM86.629 16.784V14.784H86.021V16.784V18.784H86.629V16.784ZM86.021 16.784V14.784C85.9848 14.784 85.9672 14.7809 85.9648 14.7805C85.9629 14.7801 85.973 14.7819 85.9909 14.7895C86.0092 14.7972 86.0282 14.8078 86.0452 14.8201C86.0621 14.8322 86.0706 14.8414 86.0715 14.8424L84.581 16.176L83.0905 17.5096C83.8724 18.3835 84.9172 18.784 86.021 18.784V16.784ZM84.581 16.176L85.9952 14.7618C85.9779 14.7445 85.9711 14.7346 85.97 14.733C85.969 14.7317 85.9711 14.7345 85.9735 14.7405C85.976 14.7464 85.9764 14.7494 85.9758 14.7467C85.9753 14.7436 85.973 14.7303 85.973 14.704H83.973H81.973C81.973 15.8075 82.3843 16.8078 83.1668 17.5902L84.581 16.176ZM83.973 14.704H85.973C85.973 14.6777 85.9753 14.6644 85.9758 14.6613C85.9764 14.6586 85.976 14.6616 85.9735 14.6675C85.9711 14.6735 85.969 14.6763 85.97 14.675C85.9711 14.6734 85.9779 14.6635 85.9952 14.6462L84.581 13.232L83.1668 11.8178C82.3843 12.6002 81.973 13.6005 81.973 14.704H83.973ZM84.581 13.232L86.0715 14.5656C86.0706 14.5666 86.0621 14.5758 86.0452 14.5879C86.0282 14.6002 86.0092 14.6108 85.9909 14.6185C85.973 14.6261 85.9629 14.6279 85.9648 14.6275C85.9672 14.6271 85.9848 14.624 86.021 14.624V12.624V10.624C84.9172 10.624 83.8724 11.0245 83.0905 11.8984L84.581 13.232ZM86.021 12.624V14.624H87.717V12.624V10.624H86.021V12.624ZM87.717 12.624V14.624H89.797V12.624V10.624H87.717V12.624Z" fill="white" mask="url(#path-1-outside-1_5_3)"/>
</svg>
